<?xml version="1.0" encoding="utf-8"?>
<!-- Generator: Adobe Illustrator 23.0.1, SVG Export Plug-In . SVG Version: 6.00 Build 0)  -->
<svg version="1.1" xmlns="http://www.w3.org/2000/svg" xmlns:xlink="http://www.w3.org/1999/xlink" x="0px" y="0px"
	 viewBox="0 0 985 985" style="enable-background:new 0 0 985 985;" xml:space="preserve">
<style type="text/css">
	.st0{fill:#FF0000;}
</style>
<g id="Taurus">
	<path class="st0" d="M840.14,143.59c-4.8,4.92-9.26,9.51-13.94,14.31C767.51,99.77,698.61,59.42,618.9,36.68
		c0.92-3.28,1.77-6.42,2.68-9.56c0.87-3,1.81-5.99,2.87-9.52C707.5,41.05,779.13,83.24,840.14,143.59z"/>
	<path class="st0" d="M617.65,41.46c79,22.51,147.06,62.43,204.18,119c-10.93,11.42-21.52,22.93-32.58,33.96
		c-25.08,24.99-50.42,49.71-75.6,74.61c-9.68,9.57-19.25,19.26-28.73,29.03c-2.4,2.48-4.2,2.55-6.59,0.12
		c-20.61-20.95-44.59-37.21-71.13-49.54c-13.5-6.28-27.66-11.16-42.06-16.89C582.47,168.95,599.98,105.49,617.65,41.46z
		 M625.69,218.39c-0.01,3.41-0.33,7.05,3.95,6.74c1.62-2.5,2.76-4.26,4.37-6.74c-1.75-1.51-3.77-3.25-5.91-5.1
		c-1.16,2.41-1.85,3.82-2.53,5.24c-0.31-2.36-0.21-4.88-0.99-7.07c-3.06-8.5-0.33-14.17,8.15-16.35c3.95-1.01,7.89-2.07,10.66-2.8
		c-0.54-4.72-1.02-8.88-1.4-12.21c-5.99,2.77-12.77,5.65-19.25,9.09c-1.65,0.88-3.13,3.44-3.36,5.39
		c-0.66,5.56-0.56,11.21-0.91,16.81C618.08,217.8,619.21,218.97,625.69,218.39z M650.02,168.96c-0.67,0.12-1.34,0.25-2.02,0.37
		c-0.25,2.75-0.36,5.52-0.79,8.24c-0.47,2.94-1.73,5.83-1.71,8.73c0.01,1.68,1.51,4.04,3.01,4.81c1.14,0.59,3.74-0.37,4.94-1.46
		c1.92-1.76,2.95-4.45,4.83-6.28c2.64-2.57,5.69-4.71,8.57-7.03c-1.92,3.72-4.82,6.29-6.6,9.49c-2.78,4.98-7.04,7.86-11.9,10.11
		c-3.01,1.4-6.14,2.63-9.32,3.53c-4.57,1.29-5.64,3.9-4.24,8.27c0.85,2.66,1.01,5.55,1.47,8.34c0.6,3.61,0.92,7.3,1.98,10.77
		c0.36,1.17,2.6,1.77,3.98,2.63c0.85-1.64,1.92-3.21,2.45-4.95c0.21-0.68-0.68-1.81-1.26-2.6c-3.06-4.22-2.4-8.41,0-12.62
		c3.96-6.96,6.52-8.41,16.41-5.97c6.37,1.57,11.47,0.19,16.43-3.2c7.69-5.26,14.19-11.4,16.39-21.1c0.91-4.04,2.88-7.86,4.48-11.73
		c2.07-5.02,4.3-9.98,6.37-15c0.49-1.2,0.63-2.55,0.94-3.83c1.01,0.85,1.45,1.61,1.36,2.31c-0.93,8.18-2.87,16.02-7.84,22.84
		c-0.93,1.28-1.91,2.88-1.99,4.38c-0.58,10.57-6.57,17.41-15.18,22.45c-3.53,2.06-7.21,3.86-10.92,5.82
		c2.22,5.1,6.14,5.66,10.53,5.21c5.93-0.61,11.85-1.56,17.79-1.68c2.66-0.05,3.99-0.75,5.74-2.66c3.55-3.87,7.69-7.2,11.58-10.75
		c0.39,0.42,0.78,0.84,1.17,1.27c-6.87,5.92-11.66,13.26-14.2,21.84c-1.78,6.01-3.05,12.22-3.94,18.43
		c-0.66,4.57-1.73,8.38-6.33,10.43c-5.07,2.26-10.05,4.71-15.02,7.06c1.39,2.89,3.08,4.41,6.65,2.78
		c7.53-3.45,15.23-6.53,22.89-9.77c-0.79-5.41,1.38-8.32,7.22-8.1c5.59,0.21,9.48-2.23,13.08-5.97
		c13.49-14.02,15.51-36.06,4.65-52.99c-5.34-8.33-9.41-17.08-11.25-26.91c-1.1-5.86-2.92-11.6-4.7-17.3
		c-3.02-9.64-10.71-17.52-22.59-16.37c-9.25,0.89-18.42,2.52-27.68,3.29c-7.45,0.63-10.79,4.53-11.11,11.29
		c3.58,0.58,7.18,1.16,11.27,1.82c-1.09,2.55-1.7,3.97-2.41,5.62c5.8-0.6,11.2-1.52,16.61-1.61c5.39-0.09,7.31,2.89,6.28,8.19
		c-1.5,7.68-6.38,12.89-12.95,16.16c-8.34,4.16-16.72,7.99-21.16,16.3C651.32,177.55,650.67,173.25,650.02,168.96z M622.51,170.73
		c2.45-1.89,3.99-1.62,5.79,1.67c3.42,6.28,8.57,6.61,12.07,1.79c2.23-3.08,5.61-5.31,7.87-8.37c2.6-3.5,5.25-7.26,6.56-11.33
		c1.36-4.22-1.26-6.17-5.81-5.68c-2.44,0.26-5,0.4-7.39-0.04c-3.11-0.57-4.43-2.39-3.03-5.82c2.89-7.11-1.59-13.42-9.19-13.27
		c-6.42,0.13-12.73,5.78-13.09,12.13c-0.16,2.82-0.38,6.01,4.32,6.04c4.1,0.02,8.2,0.91,12.3,1.42c0.01,0.44,0.01,0.88,0.02,1.31
		c-4.52,0-9.04,0-13.68,0C620.32,157.21,621.38,163.7,622.51,170.73z M747.64,134.35c-0.93,9.24-1.26,8.92-8.14,15.9
		c-6.03,6.12-10.46,16.31-0.33,24.63c3.29,2.71,6.05,6.16,8.69,9.55c7.68,9.84,9.43,30.06-7.47,34.94
		c-0.78,0.23-1.19,1.72-1.78,2.63c0.95,0.42,1.88,1.11,2.86,1.16c0.89,0.05,1.87-0.48,2.72-0.92c9.36-4.81,18.19-22.05,9.73-33.94
		c-4.41-6.2-8.9-12.36-13.56-18.38c-3.45-4.46-2.75-7.35,2.73-9.06c5.73-1.79,8.68-6,9.76-11.5
		C754.02,143.45,750.44,138.97,747.64,134.35z M654.25,173.17c7.17-4.58,14.09-8.83,20.8-13.39c2.26-1.54,4.34-3.64,5.82-5.93
		c3.28-5.07,0.95-10.33-4.97-10.21c-6.46,0.14-12.89,1.8-17.81,2.56c-1.27,5.87-1.27,10.5-3.27,13.99
		C652.12,164.92,651.91,168.98,654.25,173.17z M670.22,245.19c4.44-1.71,8.48-3.96,12.78-4.71c4.03-0.7,5.78-2.53,6.5-6.16
		c0.32-1.62,0.48-3.42,1.31-4.77c2.28-3.7,0.2-5.87-2.43-7.83c-1.47-1.1-3.2-1.86-4.93-2.83c-1.47,5.81,4.23,11.99-1.25,16.1
		c-4.23,3.18-9.85,4.51-14.81,6.64C668.07,242.47,668.98,243.62,670.22,245.19z M651.21,114.67c0.56,7.52-1.86,12.99-9.33,15.87
		c-0.8,0.31-0.88,4.38-0.08,6.16c0.45,1.01,4.02,1.88,5.07,1.17C655.66,131.92,657.12,124.18,651.21,114.67z M614.69,116.61
		c-6.37,3.82-10.05,8.44-10.37,14.69c-0.29,5.62,4.93,7.17,9.19,9.83c1.33-2.28,2.54-4.34,3.73-6.36
		C610.01,129.56,609.9,128.88,614.69,116.61z M683.17,213.73c5.02,4.41,9.23,8.11,13.38,11.75c1.09-4.43,2.15-8.71,3.53-14.31
		C694.21,212.06,688.97,212.85,683.17,213.73z M646.62,147.93c3.96-1.76,8.03-3.4,11.9-5.41c1.03-0.53,1.47-2.2,2.18-3.35
		c-1.32-0.5-2.79-1.66-3.92-1.4c-4.15,0.97-8.26,2.22-12.21,3.82c-1.19,0.48-1.78,2.44-2.64,3.72
		C643.24,146.05,644.56,146.78,646.62,147.93z M623.15,171.51c-1.37,2.41-4.15,5.2-3.58,6.77c0.86,2.37,3.83,4.9,6.33,5.47
		c2.48,0.56,5.49-1.24,9.31-2.3C630.59,177.64,627.32,174.94,623.15,171.51z M663.74,259.7c1.14,2.07,1.46,3.65,2.37,4.12
		c3.08,1.61,8.28-0.16,9.65-3.4c0.42-0.99-0.35-3.33-1.27-3.88c-3.41-2.02-11.01-0.46-14.61,2.87
		C661.81,259.56,663.38,259.67,663.74,259.7z M656.32,245.12c-0.26,0.46-0.52,0.92-0.77,1.38c1.81,1.11,3.71,3.23,5.4,3.08
		c2.01-0.18,3.83-2.33,5.74-3.62c-1.13-1.44-2.07-3.87-3.44-4.15c-4.22-0.86-8.59-0.83-12.93,3.31
		C652.99,245.12,654.66,245.12,656.32,245.12z M602.38,150.77c4.65-0.61,8.28-1.09,12.11-1.59c-0.46-2.63-0.83-4.81-1.22-7.05
		C607.55,141.71,604.83,145.02,602.38,150.77z M648.79,224.71c-4.5,3.87-3.4,7.29-1.2,10.64c0.46,0.7,1.46,1.04,2.21,1.54
		c0.77-1.29,1.54-2.58,2.4-4.01c0.63,0.03,1.62,0.09,2.61,0.14c0.28-0.4,0.56-0.79,0.83-1.19
		C653.33,229.45,651.03,227.05,648.79,224.71z"/>
	<path class="st0" d="M563.58,237.52c44.51,12.56,82,35.17,114.96,66.58c-15.13,14.74-29.93,29.14-44.68,43.51
		c-42.33-34.66-46.46-35.32-86.83-50.25C552.51,277.57,557.98,257.78,563.58,237.52z M605.39,283.56c-4.03-1.1-8.84-0.41-11.09,3.92
		c-1.45,2.8-1.39,7.26-0.26,10.34c2.68,7.34,12.16,12.09,19.97,10.97c8.12-1.16,11.3-8.03,6.91-14.91
		c-0.49-0.77-0.87-1.61-1.58-2.95c5.28,1.21,8.9-0.25,11.9-5.43c-6.32,2.81-11.51,1.81-16.43-1.21c-4.89-3-8.83-6.73-9.32-13.07
		c-0.59,0.16-1.19,0.32-1.78,0.48C604.27,275.63,604.83,279.57,605.39,283.56z"/>
	<path class="st0" d="M545.95,302.5c32.44,9.35,60.25,25.58,84.04,48.77"/>
	<path class="st0" d="M604.67,286.96c6.52,0.02,13.69,5.99,13.7,11.43c0.01,4.13-3.4,7.31-7.8,7.29
		c-6.45-0.03-13.52-6.06-13.57-11.58C596.95,289.57,599.77,286.95,604.67,286.96z"/>
	<path class="st0" d="M703.31,243.41c-0.68-9.01-0.18-9.58,6.08-12.51c4.5-2.1,8.75-4.72,13.8-6.74c-1.91,2.19-3.42,5.48-5.8,6.34
		C711.25,232.73,706.81,236.42,703.31,243.41z"/>
	<path class="st0" d="M632.25,161.17c2.4-2.6,4.35-4.71,6.34-6.87C639.46,160.04,637.55,162.44,632.25,161.17z"/>
	<path class="st0" d="M629.99,351.27c-2.68,2.53-5.19,4.91-8.15,7.72c-22.06-21.55-48.56-36.66-79-45.81
		c1.06-3.65,2.01-6.9,3.1-10.67"/>
</g>
<g id="Gemini">
	<path class="st0" d="M968.18,365.49c-6.45,1.77-12.5,3.42-19.15,5.25c-21.8-79.87-61.32-149.47-119.07-209
		c4.71-4.86,9.07-9.35,13.94-14.38C904.2,209.71,945.61,281.94,968.18,365.49z"/>
	<path class="st0" d="M826.57,165.26c57.03,58.91,95.98,127.48,117.71,206.67c-64.14,16.7-127.88,33.29-191.99,49.99
		C739.76,377,717.63,337.83,685,304.62C732.21,258.15,779.2,211.89,826.57,165.26z M857.18,339.34c3.66-5.59,6.78-11.24,7.56-18.19
		c0.61-5.39,2.72-10.46,7.02-14.48c1.82-1.7,2.48-4.66,3.94-7.6c3.21,2.08,8.3,3.56,8.7,8.39c0.33,3.98-1.77,8.16-2.89,12.62
		c3.28-4.74,6.24-9.2,3.49-14.92c-2.19-4.56-5.65-7.46-11.01-6.99c-5.33,0.48-8.36,4.46-12.63,8.12
		c-10.38-8.67-8.83-24.92-17.73-33.69c-1.99,1.95-3.51,4.74-5.2,4.85c-4.55,0.28-9.29-0.06-13.72-1.13
		c-6.58-1.58-8.66-7.59-11.29-13.42c-1.55,2.5-2.68,4.96-3.27,7.53c-1.23,5.35-3.3,9.54-9.53,10.47c-3.13,0.46-6.12,1.84-9.18,2.81
		c6.97,2.73,13.84,4.48,20.78,5.83c1.78,0.34,4.02-0.17,5.69-1.01c5.95-3,11.74-6.32,17.88-9.67c6.9,11.84,13.15,22.57,19.4,33.29
		c-0.5,0.41-1,0.82-1.49,1.23c-1.29-0.98-2.61-1.93-3.87-2.95c-2.53-2.03-5.87-2.36-6.39,0.89c-0.78,4.87-4.17,4.88-7.16,5.12
		c-10.17,0.82-13.35,4.12-12.82,14.05c0.04,0.66-0.4,1.36-0.68,2.02c-1.91,4.45-3.84,8.9-5.76,13.34c0.36,0.21,0.73,0.43,1.09,0.64
		c4.1-4.39,8.15-8.83,12.35-13.12c0.7-0.72,2.23-1.26,3.15-1.02c4.31,1.1,8.54,2.51,12.47,3.7c-5.41,4.51-10.87,8.27-15.31,12.99
		c-4.29,4.56-10.55,8.13-11.15,17.09c3.09-1.3,5.53-1.79,7.13-3.22c0.77-0.69-0.05-3.15-0.14-4.8c-0.32-0.4-0.64-0.79-0.97-1.19
		c9.38-5.11,18.77-10.21,28.15-15.33c1.16-0.63,2.25-1.38,3.37-2.08c-1.87,2.31-3.75,4.62-5.62,6.94
		c6.25-2.24,10.99-7.05,11.53-11.06C861.4,336.52,859.29,337.93,857.18,339.34z M777.56,326.18c5.35-1.03,5.97-0.57,6.17,3.45
		c4.66,0.75,9.14,1.86,13.66,2.03c2.26,0.09,5.05-1,6.76-2.5c2.69-2.36,4.55-5.62,6.99-8.3c1.39-1.52,3.23-2.64,4.86-3.94
		c-0.21-0.49-0.42-0.98-0.63-1.47c-1.89,0-3.86-0.36-5.65,0.07c-5.96,1.41-11.82,3.24-17.77,4.67c-10.33,2.48-20.83,4.35-31.02,7.29
		c-7.73,2.23-14.85,2.87-21.71-2c-0.09-0.07-0.52,0.33-0.8,0.52c1.93,3.27,3.85,6.54,6.06,10.3c7.42-4.89,15.29-4.76,23.71-2.43
		c4.2,1.16,9.05,0.54,12.11-3.79c0.25-0.35,0.24-0.89,0.39-1.51C779.65,327.78,778.69,327.04,777.56,326.18z M775.44,310.06
		c0.23,0.2,0.46,0.41,0.69,0.61c3.12-3.8,6.24-7.61,10.21-12.44c-4.92-1.82-9.42-4.79-14.01-4.94c-11.54-0.39-22.69,2.59-33.08,7.64
		c-4.43,2.15-8.27,1.56-12.36-0.2c-1.12-0.48-2.24-0.99-3.72-1.64c2.74,8.29,2.71,8.09,10.22,6.89c4.83-0.77,10.04-2.07,14.6-1.03
		c9.85,2.24,16.63,0.27,21.39-8.54c0.4,2.5,0.72,4.46,1.1,6.81c2.63-1.58,5.55-3.8,5.06,1.74c1.26-0.99,2.48-1.94,3.69-2.89
		c0.24,0.2,0.49,0.41,0.73,0.61C778.45,305.15,776.94,307.6,775.44,310.06z M861.66,259.56c-4-5.04-8.45-5.45-13.76-3.74
		c-2.57,0.83-5.63,0.52-8.42,0.21c-3.72-0.42-7.37-1.35-11.08-2.07c-0.95,8.83,3.76,15.21,10.71,15.53c0.43-1.8,0.84-3.51,1.24-5.23
		c1.47,0.67,2.91,1.38,4.41,1.97c0.72,0.29,1.58,0.6,2.29,0.46c3.84-0.8,7.87-1.24,11.38-2.83c2.21-1,4.58-3.53,5.17-5.81
		c1.25-4.88-0.38-7.99-3.91-10.33C861.06,251.27,865.19,254.24,861.66,259.56z M762.28,282.11c0.37,0.48,0.75,0.97,1.12,1.45
		c2.85-1.79,5.74-3.51,8.52-5.39c2.63-1.77,4.92-4.34,7.78-5.44c6.62-2.54,13.86-3.66,20.15-6.77c5.67-2.81,14.43-3.4,13.83-13.73
		c-13.24,6.35-26.42,12.2-39.1,18.98C769.89,273.72,766.35,278.41,762.28,282.11z M788.35,332.32c-9.14-0.12-14.09,3.33-17.62,10.48
		c-2.91,5.9-7.61,10.91-11.46,16.35c-0.51,0.72-1.23,1.94-0.96,2.45c2.04,3.81,4.31,7.5,6.1,10.53c1.63-5.66,2.56-11.65,5.11-16.84
		c2.12-4.31,6.17-7.66,9.33-11.46C781.84,340.25,784.8,336.62,788.35,332.32z M780.3,398.68c1.6-3.64,2.71-7.32,4.71-10.44
		c3.67-5.72,8.22-10.89,11.63-16.74c0.99-1.7-0.66-4.95-1.1-7.49c-2.04,0.35-4.99,0-5.94,1.21c-2.27,2.92-3.89,6.47-5.25,9.96
		c-1.86,4.77-2.65,10.04-4.98,14.53C776.71,394.82,776.37,395.63,780.3,398.68z M788.57,318.59c14.98-3.12,19.73-5.98,20.66-11.81
		c-5.46-1.06-10.89-2.11-14.9-2.89C792.43,308.74,790.59,313.43,788.57,318.59z M816.39,238.47c13.81,2.54,27.02,4.97,40.22,7.4
		c0.09-0.56,0.18-1.12,0.27-1.67C843.4,243.5,830.94,236.08,816.39,238.47z M876.11,328.63c-1.41,12.25-9.69,19.78-19.32,27.42
		C866.13,355.62,875.14,342.38,876.11,328.63z M799.99,365.74c0.53-4.41,2.71-7.64,8.24-8.08c1.79-0.14,3.41-2.39,4.84-3.47
		c-7.04,1.57-13.99,3.11-20.18,4.49C794.9,360.68,797.29,363.05,799.99,365.74z M783.51,290.31c10.17,4.43,20.34,8.41,30.33,6.8
		C804.44,295.01,793.97,292.66,783.51,290.31z M819.01,249c-5.3,8.1-2.55,20.54,7.28,23.25C819.63,265.7,815.65,258.51,819.01,249z
		 M813.06,301.39c-7.95-1.78-16.21-3.62-23.82-5.32C796.07,301.45,804.28,303.52,813.06,301.39z M809.06,338.47
		c-5.12,3.59-11.3,7.92-17.12,11.99C798.3,351.38,805.64,346.03,809.06,338.47z M876.35,315.07c-0.45-0.23-0.9-0.46-1.36-0.69
		c-3.42,8.25-6.85,16.5-10.27,24.75c0.36,0.16,0.71,0.32,1.07,0.47C869.31,331.43,872.83,323.25,876.35,315.07z M806.7,332
		c-4.81,4.3-9.83,8.79-15.24,13.64C799.62,343.73,803.52,338.02,806.7,332z M823.05,264.63c-0.35-5.12-0.7-10.2-1.04-15.24
		C818.81,254.45,819.92,259.4,823.05,264.63z M822.86,241.55c-0.11,0.38-0.22,0.77-0.32,1.15c5.1,1.14,10.2,2.28,15.3,3.42
		c0.08-0.38,0.17-0.76,0.25-1.15C833.01,243.84,827.93,242.7,822.86,241.55z M855.4,351.76c0.32,0.37,0.64,0.74,0.96,1.11
		c4.19-0.99,6.19-4.53,7.84-8.45C861.27,346.87,858.34,349.32,855.4,351.76z"/>
	<path class="st0" d="M637.89,351.86c14.53-14.63,29-29.2,43.45-43.76c20.16,12.09,63,87.24,65.48,115.16
		c-12.07,3.21-24.23,6.47-36.39,9.68c-6.42,1.69-12.87,3.31-19.31,4.95c-2.75,0.7-4.48,0.4-5.46-3.01
		c-8.9-31.12-24.86-58.22-47.02-81.74C638.33,352.8,638.15,352.32,637.89,351.86z M689.47,399.65c-0.01-9.03,7.4-9.66,12.04-12.35
		c4.68-2.71,9.1-9.15,16.37-3.36c-5.27-9.07-10.04-17.3-15.25-26.28c0.46,8.53-6.74,9.03-11.28,11.73
		c-4.75,2.82-8.94,8.25-15.92,5.54C679.99,382.96,684.44,390.79,689.47,399.65z"/>
	<path class="st0" d="M703.53,368.73c1.24,1.81,2.2,3.14,3.08,4.53c0.61,0.97,1.09,2.01,1.92,3.55c-6.61,3.83-13.12,7.6-20.11,11.65
		c-1.57-2.71-3.03-5.21-4.72-8.14C690.36,376.43,696.74,372.7,703.53,368.73z"/>
	<path class="st0" d="M625.85,363.11c2.81-2.67,5.2-4.94,8.12-7.72c23.24,23.89,38.98,52.08,48.27,84.52
		c-3.72,1.03-7.14,1.99-10.73,2.98C662.52,412.57,647.89,385.95,625.85,363.11z"/>
</g>
<g id="Cancer">
	<path class="st0" d="M967.59,621.45c-6.62-1.75-12.64-3.34-19.39-5.13c21.07-79.95,21.74-159.74,2.07-240.55
		c6.24-1.6,12.55-3.21,19.37-4.96C990.16,454.8,989.4,537.93,967.59,621.45z"/>
	<path class="st0" d="M943.19,614.84c-63.7-17.56-127.07-35.03-190.91-52.62c11.7-44.95,12.09-89.86,1.33-135.23
		c64.08-16.66,127.78-33.22,191.46-49.78C963.16,441.27,966.27,534.88,943.19,614.84z M822.43,533.5c-1.11-1.42-1.96-3.24-3.39-4.14
		c-1.79-1.13-4.09-2.09-6.09-1.96c-1.13,0.08-3.22,2.92-2.9,3.78c0.64,1.73,2.58,4.05,4.09,4.14c2.7,0.15,5.48-1.18,8.21-1.92
		c1.4-0.11,2.79-0.18,4.18-0.33c4.01-0.44,6.51-2.02,4.97-6.61C823.98,524.89,821.36,526.95,822.43,533.5z M893.73,463.12
		c4.08,5.6,8.15,11.19,11.89,16.33c0.84-3.3-3.6-17.21-7.28-21.15c-1.79-3.49-3.13-7.34-5.53-10.36c-1.86-2.34-6.39,0.31-6.74,3.71
		C885.72,455.23,889.98,461.61,893.73,463.12z M850.06,506.97c0.16,7.13,2.47,13.56,6.82,19.12c0.76,0.97,3.73,1.58,4.46,0.95
		c4.78-4.11,9.23-8.61,13.79-12.98c2.26-3.32,4.51-6.63,6.79-9.97c1.13,0.72,2.76,1.74,4.38,2.77c-2.21-2.91-4.35-5.18-1.7-8.94
		c0.72-1.02,0.76-3.19,0.16-4.33c-2.33-4.39-0.91-7.41,2.81-9.97c0.2-0.14,0.03-0.83,0.03-1.7c-2.21,1.75-4.12,3.26-6.32,5
		c-3.81-9.47-9.54-17.11-18.06-22.54c-3.36-2.14-6.05-2.06-7.46,1.91c-2.52,7.14-4.74,14.38-7.08,21.58
		C845.84,494.47,845.87,500.87,850.06,506.97z M872.57,548.73c2.96-1.79,5.1-2.46,6.18-3.91c1.34-1.79,2.83-4.44,2.44-6.35
		c-0.93-4.57-2.79-8.97-4.57-13.32c-0.41-0.99-2.83-2.26-3-2.08c-2.36,2.38-6.52,5.21-6.27,7.5
		C867.99,536.55,870.58,542.32,872.57,548.73z M873.2,441.7c-1.55,4.2-2.53,7.64-4.05,10.82c-3.68,7.73-2.44,11.53,5.83,15.66
		c0.61-1.31,1.34-2.57,1.8-3.92c1.21-3.55,1.9-7.34,3.55-10.66c1.47-2.94,1.04-5.05-1.1-7.06
		C877.69,445.1,875.93,443.88,873.2,441.7z M906.81,509.85c-0.59-0.26-1.17-0.53-1.76-0.79c-0.82,9.48-8.13,14-13.82,19.85
		c-2.11,2.16-3.26,5.32-4.63,8.13c-1.49,3.05-0.02,5.22,2.74,6.44c2.64,1.17,4.28-0.04,5.44-2.64c2.76-6.2,5.99-12.2,8.54-18.47
		C904.94,518.37,905.68,514.03,906.81,509.85z M821.32,457.09c-4-2.94-9.32-3.12-10.62-0.06c-0.64,1.5,0.19,4.59,1.46,5.76
		C814.81,465.23,817.96,463.17,821.32,457.09z M890.12,443.34c-2.82-6.25-7.59-7.16-13.27-2.91c2.41,2.19,4.82,4.37,7.35,6.67
		C886.08,445.9,887.99,444.69,890.12,443.34z M842.41,484.96c-4.1,7.58-3.08,17.53,1.68,19.14
		C843.45,497.98,845.3,491.95,842.41,484.96z M890.15,546.5c-2.21-1.23-4.16-2.32-5.39-3.01c-3.04,2.25-5.64,4.16-8.21,6.05
		C882.34,552.93,887.85,551.88,890.15,546.5z M825.3,455.17c-1.63,2.45-3.3,4.67-3.16,4.79c2.15,1.84,4.49,3.5,6.97,4.87
		c0.18,0.1,2.8-3.12,2.53-3.47C830.16,459.38,828.13,457.8,825.3,455.17z M903.24,502.74c-9,3.78-4.74,12.78-8.92,18.63
		c0.62,0.23,1.23,0.47,1.85,0.7C898.52,515.63,900.88,509.19,903.24,502.74z M836.84,553.4c5.38-2.41,9.35-6.15,11.09-11.97
		C842.76,543.98,838.4,547.32,836.84,553.4z M902.16,488.48c0.5-0.15,1-0.29,1.5-0.44c-2.73-6.69-5.45-13.39-8.18-20.08
		C896.87,482.02,897.88,484.65,902.16,488.48z M847.26,451.26c0.95-6.08-6.16-14.01-11.52-13.39
		C839.62,442.39,843.11,446.44,847.26,451.26z M855.1,527.2c-0.65,0.13-1.31,0.26-1.96,0.39c0,3.15-0.1,6.3,0.08,9.44
		c0.04,0.68,1.05,1.31,1.61,1.96c0.64-0.58,1.88-1.23,1.83-1.73C856.29,533.89,855.65,530.55,855.1,527.2z M853.12,462.09
		c0.79,0.11,1.59,0.23,2.38,0.34c0.42-3.01,0.95-6.02,1.17-9.05c0.04-0.49-1.25-1.09-1.92-1.64c-0.54,0.69-1.51,1.35-1.56,2.08
		C853,456.57,853.12,459.34,853.12,462.09z M834.74,437.12c0.2-0.69,0.4-1.39,0.61-2.08c-2.91-2.77-6.64-1.71-10.16-1.69
		c-0.1,0.42-0.21,0.85-0.31,1.27C828.17,435.45,831.46,436.28,834.74,437.12z M866.76,411.98c-0.48-0.23-0.96-0.46-1.45-0.68
		c-2.17,3.7-4.35,7.41-6.52,11.11c0.7,0.37,1.4,0.75,2.1,1.12C862.85,419.68,864.81,415.83,866.76,411.98z M876.55,564.56
		c-0.52,0.49-1.04,0.99-1.57,1.48c1.01,4.96,6.7,4.44,8.89,8.01c0.33-0.36,0.66-0.72,0.98-1.09
		C882.09,570.16,879.32,567.36,876.55,564.56z M860.8,567.39c-0.69,0.42-1.38,0.83-2.07,1.25c2.26,3.58,4.52,7.17,6.78,10.75
		c0.45-0.27,0.9-0.54,1.35-0.82C864.84,574.85,862.82,571.12,860.8,567.39z M859.14,554.09c-0.77,0.12-1.54,0.25-2.32,0.37
		c0.92,3.1-1.56,6.92,1.61,9.55c0.57-0.1,1.15-0.2,1.72-0.3C859.82,560.51,859.48,557.3,859.14,554.09z M859.5,427.11
		c-0.68-0.09-1.37-0.19-2.05-0.28c-0.2,3.22-0.4,6.44-0.61,9.65c0.51,0.06,1.02,0.12,1.54,0.17
		C861.12,433.84,859.94,430.42,859.5,427.11z M854.43,541.08c0.46,3.48,0.76,5.97,1.22,8.43c0.02,0.08,1.6-0.12,2.45-0.19
		c-0.37-2.23-0.69-4.46-1.14-6.67C856.9,542.33,856.22,542.16,854.43,541.08z M871.61,562.98c0.63-0.22,1.25-0.44,1.88-0.65
		c-1.25-3.48-2.49-6.95-3.74-10.43c-0.66,0.23-1.33,0.47-1.99,0.7C869.04,556.05,870.33,559.51,871.61,562.98z M873.34,428.54
		c-4.7,2.95-5.78,6.63-3.62,9.97C870.97,435.06,872.15,431.8,873.34,428.54z M844.78,483.5c1.32-2.69,2.32-4.71,3.78-7.69
		C842.07,477.68,841.53,478.79,844.78,483.5z M849.18,527.03c-3.32,4.85-3.06,7.71,0,9.54
		C849.18,533.77,849.18,530.95,849.18,527.03z M849.25,453.14c-0.72,0.03-1.45,0.07-2.17,0.1c0.17,2.95,0.33,5.89,0.5,8.84
		c0.56-0.03,1.12-0.06,1.67-0.09C849.25,459.04,849.25,456.09,849.25,453.14z M855.25,440.31c0,3.15,0,5.87,0,9.45
		C858.83,444.85,858.79,441.84,855.25,440.31z M834.97,458.95c-0.41,0.36-0.81,0.72-1.22,1.08c0.83,1.76,1.65,3.52,2.48,5.28
		c0.5-0.03,0.99-0.05,1.49-0.08c0.57-1.35,1.97-3.33,1.53-3.93C838.36,460.12,836.45,459.69,834.97,458.95z M875.33,426.56
		c3.71-3.44,6.65-6.16,9.58-8.88C875.75,422.67,875.75,422.67,875.33,426.56z M841.01,528.59c-2.07-1.36-3.14-2.56-4.3-2.65
		c-0.81-0.06-2.32,1.31-2.45,2.19c-0.13,0.91,1.19,2.93,1.59,2.86C837.28,530.75,838.59,529.81,841.01,528.59z"/>
	<path class="st0" d="M748.83,428.56c10.74,44.11,10.22,87.9-1.24,132.27c-20.06-5.49-39.83-10.89-59.98-16.41
		c1.06-5.6,2.08-11.09,3.15-16.56c5.15-26.35,4.15-52.63-1.35-78.77c-0.94-4.45,0.37-5.64,4.44-6.65
		c17.08-4.22,34.06-8.83,51.08-13.27C746.04,428.89,747.19,428.82,748.83,428.56z M734.23,497.21c-4.17-5.18-7.25-5.51-10.62-1.68
		c-2.44,2.77-4.38,6.21-2.22,9.48c1.53,2.32,4.59,4.33,7.33,5.01c4.24,1.05,8.07-1.08,9.91-5.04c3.92-8.48,2.08-21.06-8.05-25.87
		c4.37,5.71,6.55,11.59,5.5,18.04c-0.45,2.74-1.87,5.84-3.88,7.61c-1.41,1.24-5,1.32-6.78,0.37c-1.22-0.66-1.99-4.56-1.17-5.97
		c0.93-1.61,3.8-2.27,5.95-2.93C731.11,495.94,732.35,496.71,734.23,497.21z M713.42,491.92c4.41,3.12,8.39,2.81,11.03-0.68
		c2.52-3.32,2.17-9.3-0.68-11.96c-2.47-2.3-9.91-2.35-12.68-0.04c-7.48,6.23-5.57,25.22,4.61,28.32
		c-4.12-5.46-5.23-11.48-4.68-17.89c0.34-3.98,1.99-7.46,6.25-7.76c2.13-0.15,4.41,1.82,6.62,2.84c-1.03,1.87-1.63,4.4-3.22,5.44
		C718.81,491.41,716.09,491.35,713.42,491.92z"/>
	<path class="st0" d="M682.55,543.05c-3.81-1.15-7.24-2.18-10.9-3.28c8.2-30.64,8.45-60.93,1.03-91.52
		c2.13-0.63,3.84-1.14,5.55-1.63c1.71-0.49,3.43-0.96,5.32-1.49C691.38,478.05,691.09,510.4,682.55,543.05z"/>
</g>
<g id="Leo">
	<path class="st0" d="M839.14,841.62c-5.12-4.75-9.73-9.03-14.67-13.61c58.45-58.41,99.16-127.08,122.32-206.54
		c6.45,1.69,12.61,3.3,19.24,5.04C942.08,709.7,899.51,781.14,839.14,841.62z"/>
	<path class="st0" d="M750.94,567.32c63.75,17.58,127.08,35.04,191.11,52.7c-22.66,78.48-62.93,146.24-120.91,204.45
		c-46.3-46.97-92.47-93.81-137.97-139.95c13.63-18.35,28.02-35.93,40.37-54.84C735.9,610.75,744.17,589.6,750.94,567.32z
		 M720.95,679.01c-1.95,3.13-3.91,6.25-5.86,9.38c4.44-2.03,8.49-4.08,11.82-6.95c1.67-1.44,3.08-4.62,2.66-6.6
		c-0.38-1.8-3.4-3.04-5.02-4.34c-1.58,3.62-2.68,6.16-3.79,8.69c0.82-3.44,1.91-7.56-3.15-7.94c-2.59-0.19-5.74,1.73-7.9,3.56
		c-1.08,0.91-1.39,4.5-0.5,5.56c1.18,1.4,4,2.25,5.92,1.98C717.18,682.07,719.01,680.2,720.95,679.01z M810.24,712.03
		c3.09-4.89,6.01-9.89,9.3-14.63c3.72-5.36,8.19-6.1,13.19-2.49c0.41-0.93,0.87-1.81,1.21-2.74c1.9-5.14,1.01-8.28-3.16-10.69
		c-4.18-2.41-6.95,0.08-9.35,3.05c-1.66,2.05-2.99,4.37-4.49,6.55c-2.33,3.39-4.69,6.76-7.03,10.14c-0.59-0.63-1.18-1.25-1.87-1.98
		c5.25-2.61,6.71-7.81,8.71-12.74c2.56-6.29,8.17-9.99,13.31-9.37c6.03,0.73,7.23,5.03,7.35,10.78c2.62-7.2,0.7-13.18-4.68-16.23
		c-4.06-2.3-9.28-0.76-13.52,4.27c-1.7,2.01-2.99,4.38-4.45,6.59c-1.36,2.06-2.69,4.14-4.03,6.2c1.66-6.99,4.07-13.45,9.63-18.13
		c3.7-3.11,7.44-5.77,12.58-3.36c5.22,2.45,8.29,6.41,8.86,12.27c0.65,6.74-0.83,12.84-4.92,18.29c-1.12,1.48-2.12,3.05-3.17,4.58
		c0.41,0.34,0.82,0.69,1.23,1.03c2.34-2.57,5.92-4.8,6.74-7.79c1.4-5.1,4.61-5.74,8.69-5.96c-1.15,1.08-2.31,2.16-3.47,3.25
		c5.44,5.01,18.14,6.9,23.72,2.52c4.82-3.78,8.64-8.9,12.57-13.7c1.87-2.28,3.14-5.01,6.67-3.04c3.56,1.99,5.13,7.53,3.45,11.34
		c-2.91,6.64-7.4,12.01-13.97,14.97c-13.31,6-26.76,11.68-40.28,17.19c-6.55,2.67-11.28,7.06-13.98,13.35
		c-2.24,5.2-4.1,10.89,0.1,16.05c5.14,6.33,14.1,7.98,21.35,4.68c-2.43-2.05-5.96-3.77-7.43-6.57c-2.27-4.33-3.19-9.38-4.52-14.17
		c-0.26-0.93-0.15-2.53,0.45-3.04c3.88-3.29,7.57-7.06,12.01-9.34c8.84-4.54,18.47-7.62,27.12-12.46
		c6.69-3.74,13.07-8.58,18.4-14.09c7.2-7.45,5.66-15.01-2.61-20.99c-1.61-1.17-2.68-3.43-3.42-5.41
		c-2.25-6.07-4.21-12.25-6.28-18.39c-0.47,0.17-0.93,0.33-1.4,0.5c-0.62,11.91-5.82,14.73-16.39,8.89
		c-1.77-0.98-3.58-1.87-6.65-3.47c0.95,6.93,0.82,12.86,2.71,18.05c2.73,7.55,0.02,13.07-8.29,14c7.79-9.87,7.8-9.87,0.92-20.95
		c-1.4-2.26-1.66-3.97,0.82-5.98c1.03-0.83,1.44-3.8,0.78-5.13c-7.29-14.81-19.97-23.53-34.66-29.77c-1.02-0.43-2.55,0.35-3.85,0.56
		c0.41,1.33,0.56,2.83,1.31,3.93c0.71,1.04,2.01,1.72,3.12,2.44c12.73,8.32,19.91,21.15,27.29,33.78c1.56,2.67,2.4,5.71-1.27,9.39
		c0.92-6.84-0.93-11.5-5.91-14.75c-0.68-0.44-0.85-1.71-1.18-2.63c-2.93-8.2-8.3-14.2-16-18.28c-7.34-3.89-12.58-1.56-14.32,6.61
		c-0.4,1.86-0.92,3.7-1.39,5.54c-0.41-0.05-0.81-0.09-1.22-0.14c0-4.01-0.91-8.33,0.28-11.95c1.02-3.12,4.44-5.45,6.78-8.1
		c-8.81-5.95-18.09-8.57-27.05-4.03c-5.93,3.01-8.52,8.68-6.32,14.95c0.93,2.64,2.45,5.08,3.63,7.64c0.51,1.1,0.84,2.29,1.6,4.4
		c-7.84-7.04-13.19-13.71-7.12-23.73c-9.77,7.38-8.64,17.34-7.96,27.36c-1.26-2.74-2.93-5.64-2.65-8.33
		c0.7-6.73,2.29-13.36,3.65-20.76c-4.98,4.33-10.02,8.7-13.72,11.91c4.58,8.35,8.18,15.16,12.06,21.81c0.91,1.57,2.68,2.7,4.21,3.83
		c1.54,1.13,3.27,2,4.92,2.99c-0.3,0.46-0.6,0.92-0.9,1.37c-3.15-0.89-6.24-2.1-9.44-2.61c-11.1-1.78-21.93,7.74-17.24,15.4
		c1.14-1.96,2.18-3.82,3.27-5.64c3.78-6.31,11.53-7.23,16.34-1.67c0.73,0.84,0.34,3.42-0.44,4.6c-1.25,1.89-3.73,3.02-4.8,4.97
		c-1.07,1.94-1.98,4.91-1.21,6.64c0.63,1.4,3.91,2.35,5.93,2.22c3.13-0.2,6.19-1.49,10.24-2.58c-1.92,4.13-3.5,7.54-5.1,10.95
		c-1.28,2.73-1.48,5.72,1.72,6.68c4.23,1.28,9.04,2.43,12.79-1.16c2.71-2.59,5.45-5.53,6.99-8.86c2.44-5.3,6.28-6.46,11.64-5.2
		c-2.25,0.94-4.5,1.88-6.9,2.89c3.01,4.01,6.33,2.61,9.62,1.38c-2.11,1-4.17,2.73-6.33,2.86c-5.87,0.36-6.55,1.26-3.85,6.89
		c-2.09-0.11-4.57-0.99-6.2-0.17c-4.41,2.22-2.84,6.02-1.57,9.53c1.27,3.49,4.18,4.69,7.2,3.6c3.82-1.38,7.37-3.61,10.85-5.77
		c2.99-1.86,5.7-3.1,8.35,1.04c3.63-4.78,6.91-9.08,10.2-13.41c-1.35-1.23-2.24-2.04-2.56-2.33c1.28-2.12,2.68-3.75,3.17-5.62
		c0.17-0.65-2.13-2.88-2.83-2.68c-2.07,0.57-4.31,1.63-5.74,3.18c-1.63,1.78-2.22,4.47-3.72,6.43
		C814.66,707.75,812.35,709.81,810.24,712.03z M877.11,653.6c-2.55-5.28-4.77-10.77-7.78-15.78c-2.35-3.89-5.57-7.3-8.68-10.67
		c-0.82-0.88-3.27-1.55-3.89-1.03c-1.06,0.89-1.81,2.83-1.72,4.26c0.68,10.9,5.3,20.03,13.35,27.32c1.4,1.26,4.15,2.41,5.58,1.85
		C875.36,659.01,875.85,656.19,877.11,653.6z M789.26,615.77c5.77,5.47,10.09,13.19,19.37,11.24c2.87-1.35,5.74-2.7,8.63-4.06
		c-2.14-5.01-5.65-6.97-25.15-13.51C791.19,611.49,790.26,613.55,789.26,615.77z M734.46,679.61c3.03,0.53,5.94,1.07,8.87,1.52
		c0.91,0.14,2.6,0.2,2.67-0.06c0.81-2.88,2.53-6.26,1.66-8.64c-0.85-2.32-4.34-4.91-6.83-5.08c-2.89-0.2-5.95,2.1-8.51,3.14
		C733.13,673.92,733.76,676.62,734.46,679.61z M861.69,624.03c0.2-0.45,0.39-0.9,0.59-1.35c-0.67-0.57-1.26-1.43-2.03-1.67
		c-7.48-2.37-13.81-6.21-18.24-12.96c-0.32-0.49-3.62,0.34-4.93,1.34c-0.87,0.66-0.68,2.72-0.82,3.41
		c5.44,4.9,10.53,9.49,15.32,13.8c1.06-1.25,2.19-3.77,3.85-4.19C857.27,621.93,859.59,623.4,861.69,624.03z M714.09,685.8
		c-1.43-0.82-2.53-1.6-3.73-2.12c-4.15-1.8-6.37-0.38-7.39,4.12c-0.54,2.39-1.8,4.63-2.81,7.1c3.64,3.43,7.15,3.77,9.17,0.37
		C711.06,692.36,712.4,689.21,714.09,685.8z M759.19,697.53c-0.7,0.22-1.4,0.45-2.1,0.67c1.12,3.45,2.01,7.01,3.53,10.28
		c0.41,0.89,3.22,1.71,4.06,1.18c3.4-2.12,6.46-4.78,9.96-7.48c-6.96-3.24-8.92-2.89-12.14,1.81
		C761.36,701.75,760.28,699.64,759.19,697.53z M754.15,693.04c1.24,0.3,3.46,1.08,3.58,0.84c1.43-2.92,2.55-6,3.89-9.38
		c1.41-0.43,3.52-1.07,5.63-1.71c-0.02-0.49-0.03-0.99-0.05-1.48c-1.65-0.99-3.24-2.63-4.97-2.8c-1.8-0.18-4.4,0.55-5.4,1.84
		c-0.85,1.1-0.54,3.95,0.33,5.36C759.46,689.44,759.16,690.54,754.15,693.04z M863.33,658.8c0.26-0.29,0.53-0.57,0.79-0.86
		c-3.72-5.65-7.44-11.3-11.15-16.93c-1.95,1.31-3.65,2.46-5.59,3.76C852.76,649.5,858.04,654.15,863.33,658.8z M788.6,602.1
		c-0.56-0.1-1.12-0.21-1.68-0.31c-2.34,4.22-4.67,8.44-7.01,12.66c0.3,0.46,0.6,0.92,0.9,1.38c2.59-1.56,6.19-2.55,7.5-4.85
		C789.62,608.7,788.6,605.11,788.6,602.1z M763.49,666.08c0.63-6.96-3.34-13.34-9.24-14.96c-1.11-0.3-2.53,0.53-3.81,0.84
		c0.77,1.19,1.36,3.2,2.35,3.42C758.67,656.69,761.87,660.39,763.49,666.08z M781.09,592.03c-1.84,2.53-3.86,4.53-3.54,5.02
		c1.38,2.13,3.43,3.82,5.24,5.68c1.22-1.4,3.72-3.26,3.42-4.11C785.44,596.5,783.4,594.84,781.09,592.03z M751.48,671.46
		c2.93-3.01,3.27-5.47-0.01-8.04c-2.49-1.95-4.69-2.96-6.8,0.63C746.98,666.57,749.15,668.93,751.48,671.46z M779.07,609.91
		c0.53-2.28,1.7-4.43,1.08-5.27c-1.16-1.57-3.24-2.93-5.15-3.31c-1.1-0.22-2.62,1.65-4.76,3.14
		C773.56,606.51,775.88,607.94,779.07,609.91z M759.03,668.46c0.33-0.36,0.66-0.71,1-1.07c-2.5-6.99-6.58-10.55-12.36-9.7
		C751.78,661.59,755.4,665.03,759.03,668.46z M830.5,602.89c-1.74,1.74-2.9,2.9-4.07,4.07c1.93,1.3,3.74,2.93,5.87,3.71
		c0.68,0.25,2.18-1.77,3.31-2.75C834.1,606.43,832.58,604.93,830.5,602.89z M840.31,600.84c-2.09-1.87-3.63-4.11-4.53-3.88
		c-1.54,0.4-2.68,2.35-3.99,3.65c1.4,1.36,2.64,3.05,4.3,3.86C836.62,604.73,838.3,602.62,840.31,600.84z M826.67,619.5
		c1.87-1.77,3.13-2.96,4.39-4.15c-1.65-1.12-3.23-2.96-4.96-3.11c-1.25-0.11-2.7,2.03-4.06,3.17
		C823.37,616.59,824.7,617.76,826.67,619.5z"/>
	<path class="st0" d="M745.97,565.95c-7.11,25.45-17.77,48.72-32.01,70.08c-9.25,13.88-20.53,26.41-30.92,39.53
		c-2.77,3.49-5.19,3.94-8.71,0.24c-12.93-13.59-26.2-26.86-38.57-39.45c10.08-13.79,20.31-26.85,29.49-40.61
		c9.25-13.87,15.38-29.37,20.72-46.32C705.82,554.89,725.69,560.36,745.97,565.95z M674.61,619.71c0.66-3.7,0.29-7.55,1.69-8.37
		c3.42-1.99,5.69,1.04,7.29,3.92c0.88,1.59,1.44,3.36,2.2,5.02c4.18,9.19,11.16,10.32,17.88,2.87c1-1.1,1.8-2.4,2.59-3.67
		c5.44-8.76,3.16-13.71-6.97-15.05c0.23-0.97,0.47-1.94,0.67-2.91c0.69-3.37-0.37-6.11-3.58-7.38c-3.21-1.28-6.37-0.12-7.53,2.98
		c-1,2.69-1.58,6.31-0.57,8.8c1.4,3.45,5.23,3.6,8.72,2.66c2.94-0.8,6.07-2.04,7.26,2.33c1.12,4.12-2.53,10.87-6.74,12.21
		c-4.94,1.57-6.79-2.1-8.61-5.56c-0.69-1.32-1.11-2.81-1.92-4.05c-1.53-2.34-2.86-5.1-5.03-6.63c-1.43-1.01-5.1-1.08-6.11-0.01
		c-2.1,2.22-3.53,5.36-4.32,8.37C671.24,616.37,673.48,618.16,674.61,619.71z"/>
	<path class="st0" d="M670.31,545.3c3.83,0.97,7.14,1.8,10.84,2.74c-9.91,32.25-26.12,59.88-49.91,83.53
		c-1.67-1.58-3.01-2.76-4.26-4.04c-1.13-1.16-2.17-2.43-3.54-3.98C645.64,601.41,660.8,575.24,670.31,545.3z"/>
	<path class="st0" d="M693.45,607.07c-1.81-2.75-3.63-4.41-3.31-5.26c0.69-1.81,2.48-3.2,3.83-4.76c1.11,1.08,3.27,2.34,3.12,3.22
		C696.78,602.15,695.29,603.84,693.45,607.07z"/>
	<path class="st0" d="M790.91,646.78c2.08-0.68,3.35-0.82,4.27-1.46c1.45-1.01,3.65-2.31,3.72-3.58c0.08-1.46-1.53-3.66-2.97-4.34
		c-1.36-0.65-3.95-0.36-5.14,0.59c-3.74,2.99-3.89,8.15-1.68,12.6c2.63,5.3,4.73,10.87,6.91,16.39c0.39,0.99,0.06,2.27,0.06,3.42
		c-0.47,0.16-0.95,0.31-1.42,0.47c-3.5-9.57-7.32-19.03-10.34-28.75c-1.32-4.24,0.6-8.46,4.91-10.42c4.06-1.84,8.12-1.21,11.44,2.14
		c3.83,3.87,3.24,12.7-1.26,15.68C796.22,651.64,794,649.56,790.91,646.78z"/>
	<path class="st0" d="M810.26,671.98c0.55-6.08,1-12.18,1.67-18.25c0.46-4.19,2.95-6.49,7.19-6.94c4.51-0.48,7.93,1.09,9.52,5.43
		c1.58,4.3-0.25,8.15-3.35,10.75c-2.87,2.4-5.39,0.25-7.4-2.43c2.41-0.39,5.09-0.06,6.53-1.23c2.19-1.79,2.66-4.79,0.07-6.95
		c-2.54-2.12-5.82-2.98-7.72,0.38c-1.83,3.23-2.65,7.06-3.71,10.69c-0.83,2.83-1.35,5.75-2,8.63
		C810.8,672.04,810.53,672.01,810.26,671.98z"/>
	<path class="st0" d="M788.17,693.18c-3.07,1.87-5.37,3.27-8.04,4.9C780.9,692.18,781.86,691.56,788.17,693.18z"/>
	<path class="st0" d="M803.19,692.11c1.88-5.77,1.88-5.77-4.27-9.53c2.11-0.15,4.39-0.84,6.26-0.25c1.25,0.4,2.85,2.81,2.64,4.02
		c-0.42,2.35-2.02,4.48-3.13,6.7C804.19,692.74,803.69,692.42,803.19,692.11z"/>
</g>
<g id="Virgo">
	<path class="st0" d="M820.49,831.87c4.83,4.6,9.38,8.93,14.49,13.79c-62.27,59.77-134.46,100.64-217.8,122.96
		c-1.76-6.42-3.46-12.6-5.26-19.18C691.54,927.98,761,888.96,820.49,831.87z"/>
	<path class="st0" d="M561.19,752.52c44.33-11.84,83.06-34.05,116.92-65.62c46.51,47.18,92.63,93.97,139.22,141.24
		c-5.35,4.97-10.33,10.26-15.98,14.7c-16.44,12.93-32.77,26.04-49.83,38.1c-24.36,17.23-50.68,31.2-78.41,42.19
		c-18.05,7.16-36.54,13.19-54.88,19.61c-7.11,2.49-7.25,2.3-9.1-4.73c-8.07-30.69-16.2-61.37-24.22-92.08
		c-8.01-30.7-15.92-61.42-23.86-92.14C560.99,753.48,561.12,753.13,561.19,752.52z M632.7,791.28c5.74,3.65,11.59,7.16,17.2,11.01
		c3.27,2.25,6.14,5.06,9.2,7.61c1.65,2.15,3.3,4.3,4.96,6.45c-11.84-3.99-20.18-14.55-33.76-14.51c10.36,7.65,19.4,16.46,26.37,27.2
		c6.89,10.61,13.62,21.32,20.43,31.98c-0.35,0.3-0.69,0.59-1.04,0.89c-0.66-0.3-1.59-0.41-1.96-0.92
		c-4.81-6.69-9.48-13.5-14.33-20.16c-3.31-4.55-6.76-9.02-10.38-13.33c-0.78-0.93-2.55-1.03-3.87-1.5c-1.36-0.48-3.04-0.6-4.01-1.49
		c-1.57-1.44-2.4-3.7-4.03-5.03c-2.43-2-4.79-5.99-8.61-1.53c-1.65-2.11-2.92-4.35-4.78-5.9c-1.26-1.06-3.33-1.15-5.04-1.67
		c0.42,1.58,0.4,3.49,1.32,4.68c11.87,15.32,24.04,30.41,32.81,47.86c5.28,10.5,10.49,21.05,16.08,31.38
		c1.1,2.04,3.78,3.22,5.74,4.79c1.29-1.9,3.28-3.64,3.72-5.72c1.22-5.76,1.79-11.66,2.8-18.76c1.74,1.63,2.83,2.4,3.58,3.41
		c1.78,2.39,3.28,5,5.1,7.36c3.15,4.07,5.16,3.78,7.57-0.92c0.36-0.7,0.79-1.37,1.25-2.17c3.83,1.08,7.41,2.47,11.11,3.05
		c5.37,0.84,8.79-2.33,11.1-6.77c2.29-4.4,2.37-9.36-1.27-12.48c-4.15-3.55-9.51-5.69-14.2-8.37c-1.67,1.27-2.98,2.27-4.29,3.26
		c0.72-3.49,2.53-6.28,3.31-9.34c2.89-11.31,4.19-23.02,12.9-32.23c3.56-3.76,6.96-6.87,11.77-8.41c2.41,7.11-4.71,9.34-8.43,14.75
		c3.13-0.82,4.64-1.22,6.16-1.61c0.11,0.27,0.21,0.53,0.32,0.8c-2.23,1.32-4.47,2.65-8.01,4.75c3.13,0.54,4.64,0.79,5.11,0.87
		c0.57,3.03,1.06,5.65,1.55,8.28c1.33-1.9,2.66-3.81,4.18-6c0.47,0.05,1.95,0.21,4.42,0.47c-2.07-3.51-3.58-6.09-5.1-8.66
		c0.26-0.13,0.51-0.26,0.77-0.39c1.93,1.13,3.86,2.26,6.12,3.59c0,1.48,0,3.28,0,5.14c0.89-0.13,1.39-0.06,1.5-0.24
		c0.84-1.3,1.61-2.65,2.56-4.26c3.23,3.58-5.75,10.04,2.75,11.94c0.26,1.96,0.55,4.11,0.84,6.25c0.55,0.02,1.1,0.05,1.64,0.07
		c1.06-2.12,2.12-4.24,3.19-6.39c2.24,0.43,4.22,0.82,6.21,1.2c0.33-0.44,0.67-0.88,1-1.32c-1.43-1.66-2.87-3.33-4.18-4.86
		c2.1-7.81-7.75-3.06-8.71-7.6c4.19-0.04,7.1-3.15,7.96-8.58c1.58,0.6,3.07,1.38,4.64,1.66c0.92,0.17,1.98-0.46,2.98-0.73
		c-0.54-1.07-0.83-2.7-1.69-3.09c-1.73-0.79-3.77-0.91-5.73-1.32c0.68-1.75,1.32-3.4,1.96-5.05c-2.21,0.31-3.41,1.37-4.74,2.22
		c-1.18,0.76-2.51,1.28-3.77,1.9c-0.13-0.37-0.26-0.73-0.39-1.1c1.54-1.24,3.08-2.49,4.63-3.73c-0.28-0.5-0.57-1.01-0.85-1.51
		c-2.42,1.09-4.77,2.82-7.28,3.11c-2.58,0.3-5.32-0.81-8-1.3c0.33-0.36,0.65-0.73,0.98-1.09c-0.99-2.11-1.43-5.19-3.09-6.13
		c-3.38-1.92-5.31,0.73-6.69,3.75c-0.52,1.15-1.5,2.38-2.6,2.93c-10.65,5.34-17.87,13.6-21.41,25.42
		c-9.54-2.28-5.86-10.55-7.35-14.95c-5.29,2.41-10.38,4.72-15.7,7.14c0,1.52,0,3.44,0,5.36c-0.35,0.21-0.71,0.43-1.06,0.64
		c-3.38-4.14-6.75-8.28-9.74-11.94c3.79,0.9,7.39,2.25,11.05,2.45c2.65,0.14,5.42-1.14,8.07-1.98c6.9-2.19,11.47-10.48,9.6-16.64
		c-3.96-13.02-8.08-26.01-11.43-39.19c-3.25-12.78-4.78-25.84-2.85-39.09c0.55-3.75,0.73-7.55,1.09-11.43
		c-4.14,0.11-4.08,2.86-3.92,5.32c0.78,12.45,1.36,24.92,2.67,37.32c0.77,7.3,2.78,14.47,4.23,21.7c-0.22,0.09-0.44,0.17-0.65,0.26
		c-0.92-1.42-1.83-2.83-2.75-4.25c2.78,11.79,11.13,21.48,12.65,33.65c-0.43,0.22-0.85,0.44-1.28,0.65
		c-1.44-2.26-2.87-4.52-4.69-7.38c0.88,4.31,4.18,7.73,1.78,12.3c-1.55-1.15-2.61-1.94-3.79-2.81c0,2.51,0,4.65,0,7.83
		c-8.28-6.56-9.08-16.53-15.36-23.11c3.24,7.77,6.48,15.55,9.72,23.32c-0.57,0.4-1.14,0.8-1.71,1.2c-1.35-1.16-3.06-2.08-3.98-3.51
		c-2.79-4.33-5.15-8.92-7.94-13.25c-0.83-1.28-2.49-2.02-3.77-3.02c0.84-4.22-6.07-15.02-11.3-17.64c-0.76-1.39-1.22-3.09-2.31-4.12
		c-9.65-9.07-19.44-17.99-29.14-27.01c-3.06-2.84-4.49-0.22-6.7,1.69c1.6,1.23,2.85,2.29,4.19,3.2c7.25,4.89,14.72,9.48,21.72,14.71
		c4.47,3.33,8.25,7.59,12.34,11.43c1.21,1.94,2.41,3.88,3.63,5.81c2.52,3.98,5.04,7.96,7.57,11.94c3.73,6.58,7.47,13.16,11.2,19.74
		c-0.36,0.21-0.73,0.43-1.09,0.64c-4.76-4.05-9.52-8.09-14.29-12.14c-3.01-3.5-5.62-7.49-9.13-10.38c-4.98-4.11-9.77-9.23-17.3-8.23
		c-1.06-0.81-2.02-1.83-3.2-2.39c-7.61-3.64-15.29-7.14-22.89-10.79c-2.33-1.12-4.49-2.57-6.73-3.87
		C604.02,779.86,624.28,789.8,632.7,791.28z M671.7,783.07c-6.33-18.49-9.83-37.43-9.67-57.18c-5.77,0.35-4.82,4.38-4.57,7.32
		C658.96,750.72,664.13,767.24,671.7,783.07z M660.36,776.68c0.3-0.18,0.61-0.37,0.91-0.55c-5.03-8.26-9.93-16.61-15.16-24.74
		c-1.75-2.72-4.16-5.12-6.66-7.21c-1.05-0.88-3.1-0.57-4.69-0.81c0.38,1.55,0.3,3.48,1.22,4.58
		C644,757.61,652.2,767.12,660.36,776.68z M636.51,781.73c0.22-0.24,0.43-0.49,0.65-0.73c-10.83-7.04-21.65-14.09-32.49-21.11
		c-2.61-1.69-4.73-1.27-6.28,1.04C611.39,768.02,623.95,774.88,636.51,781.73z M655.94,780.15c0.55-0.54,1.1-1.08,1.65-1.62
		c-10.88-11.28-21.77-22.56-32.65-33.84c-0.61,0.41-1.21,0.81-1.82,1.22c0.88,1.44,1.51,3.13,2.67,4.27
		c4.14,4.06,8.59,7.82,12.69,11.92C644.41,768.02,650.13,774.13,655.94,780.15z M660.62,766.34c0.11-0.03,0.21-0.06,0.32-0.09
		c-1.39-3.99-2.73-8.01-4.19-11.98c-2.17-5.91-4.33-11.82-6.76-17.62c-0.37-0.88-2.19-1.16-3.35-1.71
		c-0.38,1.21-1.46,2.79-1.04,3.58C650.47,747.86,655.57,757.08,660.62,766.34z M677.71,768.71c0.66-0.26,1.31-0.52,1.97-0.79
		c-2-10.72-9.08-19.28-12.42-29.43c-0.58,0.24-1.15,0.48-1.73,0.72C669.59,749.05,673.65,758.88,677.71,768.71z M587.15,768.21
		c8.09,1.55,16.23,3.12,24.69,4.75C604.97,766.98,593.38,764.89,587.15,768.21z M674.93,744.06c-0.9-8.59-1.66-15.89-2.46-23.55
		C668.77,722.88,669.87,731.75,674.93,744.06z M752.8,852.47c1.57-1.7,2.96-2.81,2.81-3.11c-1.15-2.2-2.6-4.24-3.96-6.33
		c-0.89,0.71-2.64,1.75-2.52,2.07C749.99,847.36,751.23,849.47,752.8,852.47z"/>
	<path class="st0" d="M630.03,639.75c14.85,14.64,29.46,29.05,44.06,43.44c-20.81,23.25-70.51,54.42-114.64,64.4
		c-5.13-19.86-10.26-39.74-15.53-60.14C576.74,678.49,605.44,662.48,630.03,639.75z M608.19,707.84c2.99-6.33-1.25-10.1-5.35-12.84
		c-4.39-2.93-5.53-6.63-5.71-11.27c-0.06-1.42-0.31-2.84-0.47-4.25c-0.52-0.09-1.05-0.17-1.57-0.26c-0.59,2.81-1.17,5.63-1.69,8.15
		c-2.31-1-4.65-2.02-6.99-3.03c-0.18,0.42-0.35,0.84-0.53,1.26c6.51,6.79,6.51,6.79,10.36,18.07c2.91,8.54,10.26,9.99,16.84,3.37
		c0.38-0.39,1.11-0.41,1.64-0.67c4.59-2.31,9.2-4.59,13.74-7c0.54-0.29,0.71-1.26,1.13-2.07c-1.3,0.19-2.89,0.74-3.11,0.4
		c-5.06-7.65-9.97-15.41-14.96-23.24c-1.33,0.78-2.43,1.42-3.55,2.08c4.07,7.19,7.88,14.18,11.96,21.01c2,3.34,0.88,4.69-2.69,5.57
		c-4.68-7.98-9.28-15.82-14.01-23.87c-1.31,0.72-2.58,1.43-4.05,2.24c0.85,1.47,1.59,2.74,2.33,4.02
		c3.26,5.59,6.63,11.12,9.75,16.78C613.24,705.87,612.6,706.92,608.19,707.84z"/>
	<path class="st0" d="M542.64,682.32c-0.9-3.13-1.73-5.97-2.52-8.82c-0.12-0.45-0.02-0.97-0.02-1.73
		c29.92-8.33,56.37-22.96,79.52-44.37c2.77,2.62,5.28,4.99,7.75,7.33C609.43,654.48,571.04,676.27,542.64,682.32z"/>
	<path class="st0" d="M604.92,706.79c-5.35-1.86-6.82-4.4-6.44-11C602.7,698.35,606.03,701.13,604.92,706.79z"/>
	<path class="st0" d="M709.04,873.08c-2.89-2.32-5.78-4.64-8.68-6.96c0.17-0.41,0.33-0.81,0.5-1.22c1.14,0.32,2.42,0.41,3.38,1.01
		c1.1,0.69,1.86,1.89,2.85,2.77c4.42,3.93,6.34,3.65,10.71-2.9c0.84,3.14,2.23,5.4,1.77,7.19c-1.19,4.62-2.72,9.48-8.69,10.22
		c-5.92,0.73-10.24-1.34-12.94-7.05c3.66,1.81,6.42,3.17,9.18,4.53c0.18-0.24,0.35-0.48,0.53-0.73c-2.96-2.12-5.93-4.23-8.89-6.35
		c0.23-0.38,0.47-0.77,0.7-1.15c2.05,1.25,4.09,2.5,6.14,3.75c0.15-0.23,0.3-0.45,0.45-0.68c-2.4-1.98-4.8-3.96-7.2-5.94
		c0.24-0.35,0.47-0.69,0.71-1.04c2.96,1.75,5.92,3.49,8.87,5.24C708.65,873.55,708.84,873.31,709.04,873.08z"/>
	<path class="st0" d="M658.4,851.02c1.87,1.72,4.04,3.22,5.54,5.22c2.18,2.89,3.38,6.65,5.91,9.11c2.55,2.48,6.2,3.84,9.38,5.67
		c1.21,0.7,2.45,1.36,3.28,2.85c-5.79,1.01-10.52-1.16-14.26-4.83c-2.39-2.36-3.62-5.87-5.54-8.74c-1.79-2.66-3.81-5.16-5.74-7.73
		C657.45,852.04,657.93,851.53,658.4,851.02z"/>
	<path class="st0" d="M680.38,868.91c-6.8-0.1-14.22-8.4-16.5-18.77C669.46,856.48,674.96,862.75,680.38,868.91z"/>
	<path class="st0" d="M736.3,824.35c-1.7-2.99-7.7-4.02-3.63-10.28c1.82,3.54,3.39,6.59,4.95,9.63
		C737.18,823.91,736.74,824.13,736.3,824.35z"/>
	<path class="st0" d="M739.91,822.3c-1.68-2.86-3.36-5.73-5.32-9.08C739.76,815.02,740.39,815.97,739.91,822.3z"/>
</g>
<g id="Libra">
	<path class="st0" d="M406.26,952.82c-4.55-1.26-9.07-2.63-13.65-3.76c-7.7-1.91-15.45-3.66-23.65-5.59
		c17.6-63.89,35.09-127.36,52.7-191.27c44.5,11.69,88.93,12.13,134.07,1.79c16.6,63.78,33.18,127.48,49.95,191.95
		c-6.42,1.37-12.37,2.57-18.29,3.93c-1.87,0.43-3.64,1.31-5.45,1.98c-1.45,0.01-2.92-0.11-4.35,0.07
		c-17.46,2.17-34.87,4.97-52.38,6.47c-35.1,3.01-70.07,1.03-104.89-4.17C415.67,953.51,410.94,953.27,406.26,952.82z M511.09,881.89
		c-0.56,3.84-1.13,7.69-1.63,11.16c3.58-4.06,7.73-2.68,11.89,0.66c0.72,0.58,1.76,0.77,2.65,1.14c2.57,0.45,5.13,0.9,7.67,1.35
		c0.39,2.05,0.84,4.41,1.29,6.77c-1.93,3.93-5.1,4.74-9.19,4.04c-6.04-1.04-12.11-1.95-18.2-2.51c-1.46-0.13-3.06,1.32-4.96,2.21
		c-1.1-0.52-3-1.84-5.08-2.26c-2.31-0.47-4.78-0.11-5.75-0.11c-1.27-5.02-1.78-9.11-3.33-12.76c-2.99-7.02-1.98-16.26,2.94-21.93
		c0.86-0.99,1.56-2.15,2.2-3.3c1.63-2.93,3.16-5.92,4.77-8.87c0.87-1.59,2.08-3.04,2.7-4.71c3.15-8.41,6.13-16.89,9.23-25.32
		c0.34-0.91,0.91-1.79,1.56-2.53c4.4-5,6.83-10.79,8.12-17.34c1.44-7.34,5.49-13.15,12.49-16.42c2.79-1.3,5.72-2.29,8.58-3.42
		c-6.23-1.63-12.38-2.22-18.54-2.54c-0.76-0.04-2.08,1.24-2.3,2.12c-1.27,5.08-2.29,10.22-3.39,15.36c-1.06,0-2.8-0.54-3.54,0.09
		c-4.62,3.93-9.64,7.63-10.26,14.51c-0.4,4.55-2.65,8-5.61,11.7c-6.38,7.96-17.7,12.55-17.95,24.95c-0.01,0.44-1.15,0.77-1.4,1.32
		c-1.05,2.29-2.41,4.57-2.81,6.99c-0.39,2.35,0.24,4.87,0.43,7.51c-3.97-3.46-4.31-11.84-0.04-16.18c3.52-3.58,2.3-6.1,0.16-9.49
		c-3.06-4.84-5.56-10.03-8.46-14.98c-1.8-3.09-3.95-5.97-5.82-9.02c-1.2-1.96-2.31-4-3.22-6.11c-1.6-3.72-1.99-8.78-4.73-11.01
		c-5.41-4.41-7.53-9.81-8.74-16.12c-0.23-1.18-1.01-3.19-1.62-3.22c-5.34-0.25-10.7-0.15-16.06-0.15
		c9.64,3.39,13.89,10.21,15.68,19.47c0.86,4.46,2.82,8.71,4.29,13.05c1.23,2.37,2.46,4.75,3.69,7.12c1.77,3.42,4.17,6.68,5.17,10.31
		c1.29,4.71,1.46,9.72,2.1,14.6c-1.06-2.51-2.12-5.03-3.18-7.54c-0.51,0.05-1.02,0.1-1.52,0.15c0,2.34-0.06,4.67,0.02,7.01
		c0.06,1.79,0.98,3.87,0.35,5.31c-4.51,10.32-1.22,21.47-3.64,32.03c-0.97,4.23,0.12,8.89-0.21,13.32
		c-0.42,5.67,2.26,9.44,6.58,12.49c3.64,2.57,7.51,4.89,10.8,7.85c1.44,1.3,2.47,3.99,2.3,5.94c-0.47,5.41,1.17,10.31,5.03,12.52
		c2.81,1.61,10.63,0.47,13.55-1.98c2.43-2.05,4.33-4.18,2.23-7.67c-0.48-0.8-0.14-2.2,0.04-3.29c0.72-4.4-0.83-6.08-5.37-5.78
		c-2.82,0.19-5.65,0.49-8.46,0.38c-1.14-0.05-2.24-1.06-3.36-1.64c2.52-0.05,4.75,1.21,6.7,0.87c12.17-2.14,24.2-4.51,36.77-3.2
		c6.6,0.69,13.43-0.53,20.12-1.18c1.39-0.13,3.62-1.38,3.77-2.36c0.2-1.37-1.01-3.11-1.95-4.45c-0.99-1.42-2.38-2.55-3.59-3.81
		c0.57-2.27,1.13-4.55,1.58-6.38c3.07-0.69,6.03-1.04,8.74-2.05c2.29-0.85,4.21-3.32,6.44-3.52c2.2-0.2,4.57,1.55,7.29,2.6
		c-0.29-0.99-0.28-1.94-0.75-2.4c-2.68-2.61-2.41-5.4-1.13-8.59c2.65-6.63,5.14-13.33,7.54-20.05c0.42-1.18,0.61-2.96,0.02-3.92
		c-4.85-7.91-14.95-8.58-20.52-1.3c-0.89,1.16-0.99,3.53-0.51,5.03c2.55,7.86,5.4,15.61,8.22,23.61c-6.42,2.1-11.85,7.19-17.54,0.14
		c-2.79,4.39-6.43,4.2-10.54,2.31c-1.19-0.54-2.68-0.41-4.04-0.59c-0.97-0.97-1.93-1.95-2.9-2.92c0.85-1.31,1.98-2.52,2.51-3.96
		c2.14-5.73,3.51-11.85,6.32-17.22c2.39-4.58,0.43-6.77-2.68-9.05c-4.13-3.03-8.97-3.52-13.21-1.16c-2.46,1.37-5.73,5.4-5.21,7.25
		C504.74,868.08,508.17,874.91,511.09,881.89z"/>
	<path class="st0" d="M423.03,747.51c5.57-20.35,10.96-40.01,16.51-60.28c32.75,8.42,65.68,9.24,99.2,1.37
		c5.25,20.31,10.39,40.16,15.66,60.52C510.32,759.61,467.01,758.86,423.03,747.51z M480.82,719.66c-5.51,10.74-5.8,15.58-1.42,19.2
		c4.66,3.85,15.99,4.21,20.77,0.21c7.76-6.5,2.19-12.75-0.94-18.78c2.13-2.16,7.19,1.73,7.57-4.17c-4.45,0-8.52,0-14.06,0
		c1.93,3.5,3.45,6.09,4.81,8.77c2.05,4.05,2.29,8.12-1.13,11.52c-3.23,3.23-7.96,3.28-11.9,0.56c-4.17-2.88-4.58-7.77-1.27-13.32
		c1.31-2.2,2.31-4.59,3.92-7.83c-4.88,0-8.19-0.11-11.49,0.08c-0.87,0.05-1.68,1.03-2.52,1.58c0.86,0.73,1.63,1.85,2.6,2.08
		C477.28,719.92,478.93,719.66,480.82,719.66z M506.79,710.63c-0.03-0.42-0.06-0.85-0.09-1.28c-0.71-0.29-1.42-0.84-2.13-0.85
		c-9.6-0.07-19.2-0.11-28.8-0.01c-0.86,0.01-1.71,0.98-2.57,1.5c0.98,0.56,1.96,1.59,2.95,1.6c9.27,0.12,18.54,0.1,27.8,0.02
		C504.91,711.62,505.85,710.98,506.79,710.63z"/>
	<path class="st0" d="M534.92,674.52c0.61,2.24,1.52,5.55,2.56,9.33c-32.5,7.7-64.4,6.99-96.58-1.33c1.03-3.68,1.95-6.99,2.67-9.56
		c15.37,1.69,30.29,4.41,45.25,4.68C503.83,677.9,518.88,675.71,534.92,674.52z"/>
	<path class="st0" d="M584.97,954.93c7.14-1.28,14.28-2.55,21.9-3.92c1.69,6.07,3.39,12.22,5.26,18.95
		c-83.61,20.2-166.39,19.33-249.57-2.4c0.88-3.53,1.61-6.53,2.38-9.52c0.78-3.04,1.59-6.06,2.58-9.86
		c5.98,1.43,11.7,2.82,17.44,4.16c4.69,1.1,9.37,2.25,14.09,3.13c1.5,0.28,3.14-0.22,4.71-0.36c0.78,0.53,1.5,1.41,2.34,1.54
		c11.49,1.86,22.94,4.18,34.5,5.29c37.56,3.59,75.15,3.75,112.62-1.29C563.88,959.21,574.4,956.86,584.97,954.93z"/>
	<path class="st0" d="M543.6,861.23c6.06,0,11.5,0,17.72,0c-3.08,8.25-6.04,16.16-9.46,25.33
		C548.81,877.22,546.26,869.42,543.6,861.23z"/>
	<path class="st0" d="M515.06,885.06c-1.37-1.01-2.75-2.01-4.12-3.02c-1.34-4.74-2.69-9.48-4.01-14.23
		c-0.57-2.05-1.07-4.12-1.69-6.51c5.85,0,11.24,0,17.19,0c-2.08,5.98-4.1,11.53-5.93,17.14
		C515.8,880.58,515.53,882.85,515.06,885.06z"/>
	<path class="st0" d="M455.93,847.89c1.21,1.85,2.42,3.69,4.3,6.58c0.7-2.04,1.22-3.54,1.73-5.04c1.84,0.68,3.68,1.37,4.47,1.66
		c-1.78,2.61-5.64,5.83-5.88,9.3c-0.26,3.81,2.81,7.86,4.52,12.02c-2.3,3.4-4.93,7.28-7.64,11.3
		C456.92,871.74,456.42,859.82,455.93,847.89z"/>
	<path class="st0" d="M500.52,829.6c3.51,11.55-7.84,18.3-8.99,30.1c-2.14-3.33-3.52-5.47-4.67-7.25c0.5,0.04,2.13,0.17,4.28,0.35
		C492.97,844.71,501.89,839.32,500.52,829.6z"/>
	<path class="st0" d="M459.55,843.07c-3.94-4.66-3.76-9.78-1.7-15.12"/>
</g>
<g id="Scorpio">
	<path class="st0" d="M363.88,941.98c-78.31-22.78-145.73-62.81-203.48-120.14c47.1-46.46,93.92-92.65,141.39-139.49
		c32.25,32.29,70.32,55.03,114.78,68.45C399.02,814.52,381.53,877.96,363.88,941.98z M234.21,856.08
		c9.19-3.34,16.96-14.17,16.93-22.86c-0.03-6.99-5.48-10.67-11.87-7.86c-6.24,2.73-10.26,7.8-13.24,13.68
		c-1.57,3.09-2.51,6.5-3.74,9.77c0.48,0.35,0.96,0.71,1.45,1.06c3.52-1.94,7.04-3.88,11.57-6.38
		C234.9,848.07,234.57,851.86,234.21,856.08z M291.29,847.76c4.67-0.97,5-4.89,5.05-8.16c7.84-7.07,12.15,2.44,18.13,3.62
		c0.53-0.7,1.06-1.39,1.6-2.09c-3.17-2.7-6.33-5.41-8.49-7.25c0.73-3.14,2.72-6.53,1.8-8.69c-2.63-6.21-8.35-8.37-14.94-8.92
		c-5.03-0.42-4.34,3.93-5.83,6.28c-3.47-1.21-6.73-2.34-9.99-3.48c-0.25,0.56-0.51,1.12-0.76,1.68c2.04,1.09,4.28,1.93,6.07,3.35
		c1.57,1.24,3.11,2.93,3.78,4.75c0.64,1.73,0.14,3.87,0.14,5.77c-6.18,1.69-7.2,3.59-4.87,7.78c1.03-1.28,2.33-3.96,3.27-3.84
		c2.09,0.27,4.68,1.49,5.76,3.17C292.82,843.01,291.62,845.59,291.29,847.76z M307.34,904.45c8.43-5.65,13.55-12.66,16.78-21.13
		c1.71-4.47,0.41-8.22-3.62-10.8c-3.91-2.5-8.35-2.77-11.41,0.66c-3.9,4.38-7.02,9.51-10.08,14.55c-1.33,2.2-1.68,5-2.48,7.52
		c0.36,0.2,0.72,0.41,1.08,0.61c3.59-2.11,7.18-4.22,12.03-7.06C308.81,894.53,308.17,898.85,307.34,904.45z M317.85,818.43
		c0.8-0.16,1.6-0.32,2.4-0.48c0.31-2.6,1.61-5.6,0.76-7.74c-3.33-8.32-10.34-11.72-18.91-11.54c-1.94,0.04-3.84,2.42-5.75,3.73
		c0.1,0.57,0.2,1.13,0.31,1.7C306.37,804.94,313.86,809.08,317.85,818.43z M301.85,795.38c9.54,1.15,17.02,4.42,21.1,12.96
		c0.15,0.31,3.23-0.16,3.28-0.52c0.34-2.19,0.99-4.86,0.08-6.62c-2.66-5.15-6.88-8.92-12.76-10.15
		C309.33,790.17,305.26,790.4,301.85,795.38z M330.14,798.64c3.21-5.08,1.69-11.01-3.65-14.54c-6.29-4.15-11.83-3.57-15.69,1.99
		c3.49,1.55,7.16,2.69,10.25,4.71C324.29,792.91,326.99,795.86,330.14,798.64z M292.98,812.03c4.04,1.5,7.59,2.29,10.55,4.05
		c2.75,1.64,4.82,4.39,7.32,6.5c0.98,0.83,2.3,1.27,3.46,1.88c0.56-1.3,1.51-2.59,1.58-3.91c0.06-1.18-0.72-2.49-1.36-3.61
		c-3.23-5.64-8.79-7.88-14.61-9.43C295.74,806.4,293.27,808.29,292.98,812.03z M319.51,776.54c4.51,2.48,8.48,4.67,13.28,7.31
		c-0.32-4.16-0.55-7.7-0.87-11.23c-0.39-4.27-3.87-5.21-7.07-5.6c-0.95-0.11-2.47,2.47-3.33,4.04
		C320.6,772.78,320.14,774.75,319.51,776.54z M320.19,857.19c-0.31,3.41-1.07,6.9-0.73,10.26c0.16,1.58,2.46,2.94,3.79,4.39
		c0.92-1.31,2.32-2.52,2.64-3.97c0.45-2.05,0.22-4.28,0.09-6.42C325.76,858.01,324.05,856.34,320.19,857.19z M328.21,763.87
		c-0.77-3.24-1.09-6.62-2.47-9.5c-0.64-1.34-3.35-1.68-5.12-2.48c-0.47,1.38-1.47,2.81-1.34,4.13
		C319.97,762.7,321.01,763.53,328.21,763.87z M350.17,770.74c4.15,1.65,8.08,0.83,9.86-2.32c1.8-3.18,1.85-7.36,2.49-11.14
		c0.05-0.28-1.38-0.8-2.12-1.21c-0.38,0.75-1.05,1.5-1.07,2.26c-0.03,1.32,0.35,2.65,0.6,4.28c-2.09,0-3.41,0-5.05,0
		C357.07,767.71,355.74,770.43,350.17,770.74z M263.57,819.83c-3.19-3.4-8.88-2.19-15.68,3.13c1.87,1.33,3.66,2.61,5.31,3.78
		C256.81,824.33,260.17,822.1,263.57,819.83z M324.19,749.98c-1.06-3.6,3.65-8.54-4.01-10.13c-1.12,3.23-2.22,6.38-3.53,10.13
		C319.86,749.98,321.64,749.98,324.19,749.98z M336.11,734.44c-4.24,0.52-8.06,0.98-12.77,1.55c1.85,2.37,2.75,3.53,3.89,5.01
		C329.69,738.33,335.99,742.2,336.11,734.44z M339.42,735.64c-0.3,2.26-0.64,3.34-0.43,3.46c3.23,1.88,6.53,3.64,9.82,5.43
		c0.2-1.13,0.89-3.02,0.51-3.27C346.39,739.35,343.26,737.76,339.42,735.64z M358.44,755.49c2.96-5.28-1.56-7.34-3.54-10.09
		c-0.49-0.68-2.17-0.49-3.3-0.7c0.07,1.16-0.28,2.64,0.3,3.42C353.64,750.46,355.75,752.52,358.44,755.49z M322.46,819.3
		c4.25-0.18,9.17,2.23,12.14-2.87C330.41,816.85,325.33,813.15,322.46,819.3z M315.75,845.91c0.9,2.06,1.73,3.95,2.55,5.84
		c0.33,0.75,0.47,1.75,1.04,2.19c0.8,0.62,1.97,1.19,2.89,1.07c0.64-0.08,1.52-1.29,1.62-2.08
		C324.21,850.38,319.19,845.86,315.75,845.91z M321.89,834.01c-6.26-6.33-9.44-6.3-12.45-0.78
		C313.65,833.49,317.77,833.75,321.89,834.01z M329.28,826.45c0.02,0.59,0.04,1.18,0.07,1.76c3.21,1.71,6.42,3.43,10.62,5.67
		c-1.32-5.37-2.94-7.16-6.74-8C332.01,825.62,330.6,826.24,329.28,826.45z M329.38,826.21c-3.82-4.02-7.39-3.73-10.86-2.98
		c-1.12,0.24-1.98,1.68-3.42,2.98C320.19,826.21,324.2,826.21,329.38,826.21z M341.37,812.19c3.6,1.45,6.75,2.73,9.92,4
		c2.05-3.76-0.55-4.98-2.81-5.82C346.09,809.49,343.08,807.71,341.37,812.19z M326.99,809.99c0.03,0.88,0.06,1.76,0.08,2.64
		c4.17-0.32,8.35-0.64,12.52-0.96c-0.04-0.56-0.07-1.12-0.11-1.68C335.32,809.99,331.16,809.99,326.99,809.99z M287.86,818.94
		c1.94-5.12-0.4-8.71-7.57-10.27C282.73,811.98,285.16,815.28,287.86,818.94z M342.79,833.08c-0.53,0.2-1.07,0.41-1.6,0.61
		c2.6,5.09,5.19,10.18,7.9,15.47C349.83,842.57,346.95,837.58,342.79,833.08z M294.3,802.18c2.42-4.71-0.3-10.14-6.08-11.54
		C290.43,794.83,292.24,798.27,294.3,802.18z M286.54,798.76c-0.66,0.28-1.31,0.57-1.97,0.85c1.81,3.34,3.62,6.68,5.99,11.04
		C293.75,803.87,287.75,802.35,286.54,798.76z M298.16,793.51c0.56-0.06,1.12-0.11,1.69-0.17c1.82-4.43-0.81-7.56-2.95-10.83
		c-0.6,0.17-1.21,0.33-1.81,0.5C296.11,786.52,297.14,790.01,298.16,793.51z M288,790.52c-0.94-6.21-5.14-6.57-9.9-5.92
		C281.4,786.58,284.7,788.55,288,790.52z M349.87,823.89c-0.79,0.45-1.58,0.9-2.37,1.35c2.24,3.49,4.47,6.98,6.71,10.47
		c0.39-0.23,0.78-0.47,1.17-0.7C353.54,831.3,351.71,827.6,349.87,823.89z M337.45,817.4c-0.21,0.47-0.41,0.93-0.62,1.4
		c2.91,1.62,5.82,3.24,8.73,4.86c0.27-0.48,0.54-0.95,0.81-1.43C344.63,818.53,341.61,817.01,337.45,817.4z M266.17,817.01
		c-0.21,0.66-0.42,1.31-0.64,1.97c3.03,0.74,6.05,1.48,9.08,2.22C273.17,815.62,269.26,817.54,266.17,817.01z M292.51,780.83
		c0.37-0.15,0.73-0.3,1.1-0.45c-0.76-1.03-1.33-2.68-2.3-2.97c-2.71-0.8-5.2-4.52-8.54-1.48
		C286.16,777.64,289.34,779.24,292.51,780.83z M331.77,842.87c-0.13-5.51-4.77-9.42-8.43-7.57
		C326.08,837.76,328.83,840.23,331.77,842.87z M335.73,844.05c-0.74,0.12-1.48,0.25-2.23,0.37c1.58,4,3.16,8.01,4.74,12.01
		c0.42-0.13,0.83-0.26,1.25-0.39C338.24,852.05,336.99,848.05,335.73,844.05z M269.92,802.79c-0.17,0.62-0.33,1.24-0.5,1.86
		c3.34,1.12,6.68,2.23,10.02,3.35c0.22-0.8,0.44-1.6,0.66-2.41C276.71,804.66,273.32,803.72,269.92,802.79z"/>
	<path class="st0" d="M362.5,946.66c-1.81,6.71-3.42,12.72-5.18,19.25c-82.69-23.85-153.72-66.12-214.33-126.34
		c4.78-4.78,9.3-9.3,14.16-14.16c28.58,28.53,60.08,53.21,94.83,73.7C286.63,919.54,323.27,935.37,362.5,946.66z"/>
	<path class="st0" d="M434.49,685.87c-5.53,20.07-10.98,39.86-16.51,59.93c-16.22-4.3-31.31-10.68-45.97-18.08
		c-20.26-10.23-38.81-23.02-55.96-37.86c-1-0.87-1.95-1.81-2.89-2.75c-8.15-8.18-8.19-8.23-0.06-16.19
		c12-11.74,24.08-23.41,36.54-35.5C373.62,658.86,401.56,675.59,434.49,685.87z M384.06,681.71c-2.68-2.76-3.65-0.83-4.83,1.25
		c-4.07,7.14-8.25,14.21-12.54,21.58c-4.34-2.94-1.94-5.18-0.48-7.39c3.73-5.66,7.69-11.18,11.09-17.04
		c0.83-1.44,0.57-4.65-0.51-5.75c-1.15-1.16-4.72-1.78-5.75-0.9c-4.03,3.46-7.98,7.26-10.94,11.63c-1.69,2.49-1.41,6.32-2.25,10.79
		c3.81-3.99,6.81-7.13,9.92-10.39c-0.94,0-1.79,0-3.49,0c2.07-2.94,3.6-5.48,5.52-7.67c0.83-0.94,2.46-1.19,3.72-1.75
		c-0.03,1.48,0.51,3.32-0.17,4.38c-3.57,5.56-7.31,11.02-11.26,16.32c-3.14,4.22-2.67,6.68,2.12,8.78c1.27,0.56,2.37,1.49,3.6,2.17
		c3.4,1.89,6.83,3.74,10.15,5.56c1.03-11.14,9.44-18.27,12.48-28.39c-1.5,0.07-3.27,0.33-3.87,1.3c-2.94,4.79-5.46,9.85-8.35,14.67
		c-1.51,2.51-3.48,4.74-5.24,7.1c-0.66-0.41-1.31-0.81-1.97-1.22C373.5,697.68,380.21,690.56,384.06,681.71z"/>
	<path class="st0" d="M435.15,680.81c-31.15-9.53-58.4-25.62-81.59-48.55c2.76-2.64,5.33-5.09,7.48-7.15
		c9.53,7.29,18.81,15.77,29.37,22.11c12.88,7.73,26.7,13.96,40.39,20.25C439.22,671.33,439.9,672.13,435.15,680.81z"/>
</g>
<g id="Sagitarius">
	<path class="st0" d="M302.08,544.66c3.8-1.03,6.98-1.89,10.67-2.89c8.89,29.35,23.05,55.68,44.44,78.09
		c-2.76,2.44-5.44,4.81-8.45,7.48C326.76,604.27,311.23,576.63,302.08,544.66z"/>
	<path class="st0" d="M297.27,545.75c9.21,32.69,25.39,60.91,48.07,85.24c-14.61,14.77-29.14,29.45-43.65,44.13
		c-21.59-15.75-58.18-80.09-64.5-113.74C257.12,556.19,277.09,551,297.27,545.75z M288.41,607.96c6.89,1.89,13.06,3.58,19.69,5.39
		c0-2.45,0-4.17,0-6.14c-6.22-1.21-12.17-2.37-18.07-3.53c1.27-11.14,1.27-11.14-1.34-14.11c-1.09,4.69-2.08,8.96-3.17,13.64
		c-3.68-0.9-6.92-1.7-10.84-2.66c1.63-1.38,2.63-2.23,4.67-3.96c-5.34,1.4-9.34,2.45-14.17,3.72c3.95,3.58,6.98,6.32,10.9,9.88
		c-0.95-2.72-1.46-4.21-2.13-6.13c2.05,0.39,3.64,0.79,5.25,0.97c4.4,0.49,6.42,2.38,5.37,7.2c-0.42,1.91,0.67,4.15,1.07,6.25
		c0.44-0.05,0.87-0.1,1.31-0.15C287.43,615,287.9,611.64,288.41,607.96z"/>
	<path class="st0" d="M231.77,562.81c26.45,68.43,28.6,72.18,66.3,115.94c-47.01,46.3-94.03,92.63-141.31,139.2
		c-26.88-27.45-49.66-57.57-68.81-90.36c-21.02-36.01-36.99-74.2-47.84-114.89C104.3,596,168.07,579.4,231.77,562.81z
		 M139.14,637.91c-0.92,0.66-2.16,1.14-2.68,2.03c-0.76,1.32-1.01,2.94-1.47,4.44c1.52,0.24,3.19,1,4.54,0.62
		c2.89-0.83,4.06-3.08,3.41-6.12c3.2,4.91,4.31-1.67,6.8-1.39c-1.43,2.89-2.78,5.6-4.27,8.6c-3.69-1.24-5.67,0.64-5.68,4.79
		c-6.34,0.63-8.1,2.3-12.77,11.99c-1.5-0.77-2.99-1.53-5.29-2.71c6.55,0.08,13.85-10.89,10.55-16.79
		c-3.84,7.5-15.82,7.79-12.72,19.79c-10.8-2.02-20.75-3.89-30.31-5.68c8.18-11.35,16.03-22.25,24.32-33.76
		c-1.58,0.11-3.8-0.41-4.98,0.47c-2.98,2.22-6.2,4.64-8.05,7.74c-5.48,9.2-9.16,19.56-18.82,26.65c2.2-0.21,3.55-0.63,4.78-0.41
		c10.79,1.89,21.56,3.89,32.32,5.87c4.52,0.83,5.5,2.37,4.56,6.97c-2.11-1.57-4.21-3.15-6.32-4.72c-0.49,0.37-0.99,0.73-1.48,1.1
		c0.84,2.06,1.67,4.11,2.58,6.34c-2.94,0.83-6.7-0.7-8.5,4.22c-1.65,4.52,0.26,6.92,3.22,9.65c-0.45,0.28-0.91,0.56-1.36,0.84
		c-1.42-2.01-2.83-4.03-4.93-7c-1.24,2.75-2.57,4.24-2.36,5.47c1.36,8.02,9.12,16.36,18.35,11.12c3-1.7,6.66-2.23,11.45-3.75
		c-0.45-2.67-1.11-6.58-1.87-11.13c2.38,1.96,4,3.95,6.1,4.91c6.63,3.04,13.33,5.97,20.22,8.33c1.94,0.67,5.39-0.04,6.71-1.45
		c1.28-1.37,1.24-4.57,0.78-6.76c-0.41-1.97-1.88-3.95-3.38-5.41c-4.04-3.92-8.44-7.46-12.52-11.34c-2-1.91-3.6-4.24-5.38-6.38
		c0.28-0.21,0.56-0.42,0.85-0.63c1.13,1.28,2.26,2.57,3.44,3.91c2.57-3.5,2.57-3.5-3.65-12.6c0.38-0.39,0.76-0.78,1.15-1.16
		c1.71,2.35,3.41,4.7,5.27,7.26c3.45-6.23-1.79-9.55-3.07-14.05c1.99,1.6,4.7,3.47,4.73,5.38c0.1,5.63-0.85,11.28-1.47,17.73
		c0.94,0.73,2.85,2.22,5.88,4.58c0.33-3.43,0.43-5.77,0.82-8.06c0.25-1.47,0.93-2.87,1.41-4.31c1.51,0.76,3.91,1.16,4.39,2.34
		c2.49,6.09,5.61,12.24,6.4,18.64c1.18,9.57,2.74,18.42,11.82,24.52c-1.8,1.08-3.04,1.87-4.31,2.58c-5.16,2.87-7.74,7.89-6.26,12.25
		c1.98,5.83,6.2,7.86,13.12,6.99c6.42-0.81,12.9-1.38,19.37-1.52c4.78-0.11,9.41,0.86,9.5,7.9c2.3-2.95,4.08-5.65,5.33-8.58
		c3.16-7.48,1.81-9.53-6.17-10.21c-5.46-0.47-10.94-0.88-16.34-1.8c-1.52-0.26-2.76-2.18-4.13-3.34c1.48-1.35,2.75-3.45,4.47-3.93
		c8.11-2.26,16.35-4.02,24.51-6.09c1.17-0.3,2.95-1.26,3.03-2.06c0.12-1.22-0.75-2.78-1.65-3.78c-0.96-1.06-2.37-2.1-3.74-2.37
		c-8.42-1.66-16.83-3.55-25.34-4.44c-5.05-0.52-7.93,3.07-8.14,8.1c-0.05,1.22-0.01,2.45-0.01,3.68c-0.57,0.04-1.13,0.07-1.7,0.11
		c-0.13-2.56-1.13-5.52-0.2-7.6c1.92-4.28,4.22-8.79,7.56-11.95c6.62-6.25,12.46-12.8,15.4-21.57c-0.23,2.45,0.36,5.45-0.85,7.23
		c-3.33,4.88-7.34,9.32-11.26,13.77c-2.12,2.41-4.62,4.49-7.24,7c8.89,0,16.87,0,24.54,0c-1.09-1.29-2.51-2.95-3.71-4.38
		c7.55,0.64,14.64,4.63,22.45,0.36c4.28-2.34,9.27-3.36,13.84-5.24c1.32-0.54,2.38-1.9,3.36-3.06c0.93-1.11,1.41-2.62,2.42-3.64
		c3.71-3.77,3.48-5.74-1.49-8.89c-5.62,12.8-16.25,16.87-29.22,15.86c-3.82-0.3-8.01-1.76-10.99-4.05
		c-1.27-0.98,0.12-5.45,0.34-8.32c0.09-1.16,0.74-2.48,0.36-3.41c-0.49-1.2-1.75-2.09-2.68-3.11c-0.87-4.88-1.81-9.75-2.56-14.64
		c-0.26-1.68-0.64-3.79,0.1-5.09c2.48-4.29,1.56-8.15-0.18-12.36c-1.2-2.9-1.54-6.14-2.27-9.23c5.54,2.06,10.01,4.51,14.1,7.49
		c1.41,1.03,2.54,3.35,2.62,5.13c0.25,5.77,1.28,7.12,7.72,7.9c-0.78-4.6-1.42-9.14-2.42-13.61c-0.23-1.04-1.63-1.96-2.68-2.65
		c-5.29-3.45-10.54-6.98-16.02-10.1c-2.12-1.21-4.8-1.43-7.23-2.11c-0.34,2.18-0.94,4.37-0.95,6.55c-0.01,3.35,0.22,6.63-2.75,7.88
		c-2.16-8.33-4.28-16.47-6.56-25.25c6.58,1.88,12.31,3.49,18.02,5.19c0.53,0.16,1.17,0.79,1.31,1.32c1.93,7.28,8.23,4.28,12.66,5.78
		c-3.74-4.31-7.13-9.46-11.89-11.64c-7.14-3.26-15.2-4.56-22.93-6.45c-3.11-0.76-4.87,0.85-4.31,4.16c0.63,3.75,1.54,7.46,2.26,11.2
		c1.09,5.71-1.93,9.13-7.55,8.64c-4.92-0.42-9.85-0.78-14.99-1.19c3.3-8.22,6.67-16.59,10.03-24.96c-5.44,5.97-12.54,7.56-19.7,9.04
		c-4.54,0.94-9.31,1.33-13.57,3.01c-5.69,2.24-12,4.39-13.01,11.97c-3.08-3.54-5.89-0.59-8.7,0.46c-0.9,0.34-2.12,1.42-2.17,2.22
		c-0.31,5.35,4.08,8.38,9.29,6.58c1.21-0.42,2.4-0.93,3.59-1.4c-0.53,1.73-1.99,3.89-1.42,5.1c1.59,3.39,3.51,7.01,6.33,9.26
		c1.34,1.07,5.01-0.76,7.62-1.28C138.81,637.99,138.98,637.95,139.14,637.91z M227.17,704.22c1.78,1.82,3.93,2.56,6.88,0.34
		c7.54-5.69,18.17-4.21,25.4-11.72c4.92-5.12,5.96-5,0.15-11.68c-2.49,6.72-7.49,11.23-13.78,13.38c-6.07,2.08-12.7,2.54-18.64,3.64
		C227.17,699.64,227.17,701.69,227.17,704.22z"/>
	<path class="st0" d="M16.13,619.19c6.44-1.76,12.47-3.4,19.16-5.23c21.75,79.17,60.79,148.26,117.89,207.37
		c-4.71,4.72-9.24,9.24-14.16,14.17C79.65,773.86,38.65,702.09,16.13,619.19z"/>
	<path class="st0" d="M143.09,639.06c-1.39-0.34-2.79-0.68-4.18-1.03c0.28-1.21,1.19-3.13,0.75-3.51
		c-4.19-3.68-7.22-9.15-13.73-9.44c-0.67-2.73-1.33-5.47-2-8.2c1.47,1.86,3.12,3.33,4.87,0.46c4.87-7.98,12.96-8.88,21.09-10.17
		c4.95-0.78,9.75-2.52,14.76-3.86c-3.75,6.03-3.53,14.8-11.36,19.61c-2.24,1.38-6.64,2.78-4.06,7.34c-0.74,0.4-1.59,0.67-2.19,1.22
		C144.8,633.51,140.61,634.58,143.09,639.06z"/>
	<path class="st0" d="M191.14,629.69c-20.73-7.7-34.28,1.68-33.46,22.54c-3.45-6.13-2.14-11.88,4.96-21.61
		c-1.73-0.19-3.45-0.37-5.16-0.56C172.41,622.37,186.89,619.92,191.14,629.69z"/>
	<path class="st0" d="M139.52,683.66c0.69-4.01,2.76-8.96-3.26-11.9c0.46-0.33,0.93-0.66,1.39-0.99c3.19,2.72,6.37,5.45,9.44,8.07
		C144.22,680.65,142.1,682.01,139.52,683.66z"/>
	<path class="st0" d="M121.01,684.86c0.39-1.75,0.74-3.3,1.05-4.65c1.42,0.62,2.83,1.24,4.23,1.85c0.52-1.52,1.03-3.03,1.55-4.55
		c0.27-0.08,0.54-0.17,0.81-0.25c0.27,1.88,1,3.87,0.59,5.59c-0.18,0.76-2.66,1.06-4.14,1.4
		C123.7,684.57,122.25,684.68,121.01,684.86z"/>
</g>
<g id="Capricorn">
	<path class="st0" d="M31.61,596.16c0.74,4.05,1.48,8.09,2.34,12.78c-6.3,1.58-12.8,3.21-19.34,4.85
		c-20.38-83.16-19.88-165.84,1.47-249.18c6.62,1.88,12.74,3.61,18.9,5.36c-2.08,10.61-4.08,20.8-6.08,30.99
		c-2.3,13.71-5.49,27.34-6.74,41.14c-3.67,40.73-3.74,81.46,3.02,121.95C26.97,574.81,29.45,585.46,31.61,596.16z"/>
	<path class="st0" d="M32.05,404.1c1.74-7.04,3.47-14.09,5.23-21.13c0.89-3.54,1.83-7.07,3-11.57
		c63.58,17.52,127.05,35.01,191.02,52.64c-11.07,44.46-11.27,88.77-0.65,133.61c-63.82,16.61-127.41,33.16-191.07,49.72
		c-1.89-4.76-3.64-9.19-5.4-13.62c0.01-2.39,0.33-4.83-0.01-7.17c-2.63-18.42-6.22-36.74-7.93-55.24
		c-3.14-33.91-1.89-67.85,2.26-101.66C29.55,421.13,30.86,412.62,32.05,404.1z M174.95,453.02c-1.49-2.41-2.41-5.88-4.57-7.05
		c-9.39-5.09-22.09,2.71-21.01,13.16c0.49,4.74,3.84,9.19,5.89,13.77c9.42,12.82,26.87,8.97,34.32,0.68
		c6.35-7.07,4.83-24.89-2.58-32.58c-0.57-0.8-0.97-1.82-1.72-2.37c-9.48-6.92-19.51-6.46-29.69-1.87
		c-9.95,4.48-15.71,13.27-20.73,22.14c-8.31,14.69-22.35,21.24-36.41,28.2c-4.38,2.17-9.08,4.88-11.8,8.67
		c-1.36,1.89-2.3,2.08-3.88,2.51c-0.23,0.06-0.38,0.42-0.63,0.71c0.57,0.64,1.13,1.27,1.76,1.99c-1.46,0.85-2.63,1.53-3.98,2.31
		c0.89,0.6,1.39,0.94,1.87,1.26c-1.61,0.97-2.85,1.72-4.43,2.67c1.08,0.57,1.74,0.92,2.52,1.33c-1.31,2.14-2.62,4.26-3.92,6.38
		c0.62,0.1,1.58,0.25,2.87,0.45c-1.25,1.16-2.32,2.15-3.74,3.46c2.39,1.09,5.13,3.5,6.81,2.91c7.96-2.8,15.45-2.95,22.85,1.36
		c1.54,3.81,3.85,5.6,8.36,4.49c2.96-0.72,6.34-0.65,9.34-0.02c5.03,1.06,9.91,2.84,14.41,4.18c-3.44-2.62-6.92-5.62-10.74-8.11
		c-4.74-3.1-9.23-7.16-15.65-5.95c-1.32-0.66-2.63-1.85-3.97-1.9c-5.38-0.22-10.78-0.09-16.17-0.09c2-1.94,4.39-3.4,6.85-3.54
		c6.16-0.34,12.36-0.07,18.54-0.05c2.37,1.71,4.84,3.29,7.1,5.14c6.42,5.25,12.67,10.69,20.96,12.97c5.42,1.49,9.32,0.28,10.85-3.5
		c-6.35-1.37-13.05-1.98-19.07-4.33c-6.7-2.62-9.91-8.63-10.87-16.78c1,1.1,1.39,1.4,1.6,1.79c5.22,9.71,12.28,16.22,24.35,15.11
		c2.85-0.26,5.83,0.96,8.76,1.5c-0.69,2.59-1.1,4.13-1.51,5.67c-3.28,1.49-6.44,3.38-9.87,4.34c-2.93,0.82-3.83,1.99-3.95,5.04
		c-0.25,6.27-1.02,12.52-1.8,18.75c-0.52,4.17,1.46,5.68,5.73,4.97c5.99-1.01,12.2-2.48,18.09-1.8c8.6,0.98,17.92-2.53,22.48-10.39
		c-5.82-2.44-11.28-3.63-14.98,4.1c-3.43-0.16-6.61-0.33-9.8-0.47c-2.49-0.11-4.99-0.03-7.47-0.29c-4.49-0.47-6.12-2.98-4.23-7.16
		c1.63-3.6,4.11-6.82,5.92-10.35c0.81-1.58,0.88-3.53,1.29-5.32c1.12-1.18,2.23-2.35,3.95-4.16c6.25,5.82,12.32,11.65,18.63,17.2
		c1.3,1.14,3.48,1.57,5.29,1.67c0.51,0.03,1.67-2.27,1.66-3.49c-0.12-9.13-0.39-18.26-0.78-27.38c-0.22-5.17-1.78-9.88-6.32-14.47
		c-1.53,3.96-2.74,7.07-3.98,10.29c4.45,2.19,6.93,4.62,3.92,9.18c-0.42,0.64,0.17,1.89,0.18,2.86c0.03,4.02,0.01,8.04,0.01,13.25
		c-4.96-6.99-8.92-13.11-13.45-18.79c-4.41-5.53-9.39-10.59-15.04-16.89c4.25,2.64,7.54,4.69,11.79,7.34
		c0-8.55,0.09-15.96-0.1-23.37c-0.03-1.16-1.08-2.77-2.11-3.36c-3.44-1.93-7.1-3.48-10.67-5.17c-1.93-4.31-4.77-8.46-5.63-12.97
		c-2.15-11.41,3.37-23.09,18.1-22.21c6.36,0.38,10.64,3.71,15.02,7.44c0.19,2.57,0.61,5.16,0.52,7.72
		c-0.27,8.02-6.47,13.05-12.3,10.14C175.03,462.16,176.93,458.64,174.95,453.02z M114.13,539.26c-2.06-1.74-5.08-3.07-6.01-5.29
		c-3.11-7.4-8.99-10.77-16.17-12.4c-6.19-1.4-8.82,0.86-9.1,7.17c-0.02,0.52-0.27,1.03-0.5,1.88c-3.01-2.34-1.41-8.31-7.47-7.42
		c0.24,2.78,0.47,5.49,0.77,8.91c-5.64-2.28-6.52-6.6-6.49-11.08c0.03-4.82,0.87-9.63,0.98-14.45c0.35-15.63,1.11-31.31-3.58-46.57
		c-1.31-4.28-3.24-8.01-8.5-10.53c0.52,1.88,0.55,2.9,1.04,3.59c6.95,9.89,8.58,21.17,8.21,32.81c-0.39,12.31-1.13,24.62-1.99,36.91
		c-0.53,7.52,0.61,14.23,6.78,19.3c0.06,0.05-0.21,0.48-0.36,0.83c-4.76-1.34-7.2-4.96-7.77-9.38c-0.66-5.06-0.37-10.25-0.46-15.39
		c-0.2-10.96-0.13-21.93-0.69-32.87c-0.18-3.6-1.96-7.12-3.01-10.68c-0.43,0.13-0.85,0.27-1.28,0.4c-0.04,0.46-0.23,0.97-0.09,1.37
		c4.37,12.87,2.63,25.99,1.68,39.09c-0.45,6.24-1.07,12.5-1.01,18.74c0.09,10.22,6.16,17.62,15.88,19.66c0,2.54-0.25,5.22,0.1,7.82
		c0.21,1.56,1.36,2.99,2.09,4.47c1.25-1.33,2.75-2.51,3.66-4.04c0.63-1.05,0.13-2.76,0.71-3.86c0.64-1.21,1.91-2.91,2.97-2.95
		c10.34-0.46,19.93-6.36,30.6-4.2c0.16,0.03,0.39,0.04,0.49-0.05c1.82-1.73,3.84-3.33,5.24-5.36c0.23-0.33-2.21-2.6-3.51-3.86
		c-1.03-0.99-2.21-1.82-3.33-2.73c5.77,0.97,11.54,1.94,18.55,3.12c-4.43-5.97-8.9-8.81-15.19-8.07
		C114.14,534.51,112.49,535.87,114.13,539.26z M135.61,412.85c-10.46,3.76-13.73,15.36-10.37,23.66c1.41,3.48,0.52,4.82-2.59,5.82
		c-8.92,2.88-11.72,10.59-14.29,18.4c-0.22,0.67,0.46,1.63,0.72,2.46c0.72-0.21,1.06-0.25,1.33-0.41c0.28-0.16,0.53-0.41,0.72-0.67
		c4.65-6.49,10.54-10.26,18.96-9.48c1.86,0.17,4.39-0.87,5.72-2.23c2.99-3.03,5.43-6.61,8.08-9.94
		C132.11,429.91,130.93,426.02,135.61,412.85z"/>
	<path class="st0" d="M296.41,441.93c-8.19,33.31-8.36,65.79-0.37,98.77c-20.05,5.17-39.94,10.3-60.54,15.61
		c-10.61-43.62-10.33-86.79,0.54-130.9 M260,488.77c0.12-4.03,4.82-10.15,8.43-10.7c7.23-1.1,5.84,5.92,8.49,9.71
		c1.9-4.98,1.81-9.36-2.28-12.52c-6.23-4.83-10.29,0.78-14.67,3.8c-4.39-4.06-8.76-5.19-12.12-2.39c-1.74,1.45-3.55,4.57-3.16,6.48
		c0.98,4.81,5.22,5.88,9.24,5.75c3.25,7.04,10.89,2.79,15.28,6.34c-7.15,3.97-16.86,2.34-22.74,11.03
		c9.52-2.63,18.06-5.23,26.73-7.29c3.95-0.94,5.52-2.52,3.93-6.9C271.72,491.02,266.05,489.93,260,488.77z"/>
	<path class="st0" d="M311.7,536.61c-4.14,1.05-7.44,1.88-10.68,2.7c-7.74-20.37-7.52-77.48,0.37-95.54
		c3.36,0.72,6.84,1.46,10.73,2.29C304.29,476.2,304.11,506.13,311.7,536.61z"/>
	<path class="st0" d="M98.16,548.34c-5.09,0.48-6.93-1.46-6.7-8.08C94.05,543.37,95.93,545.64,98.16,548.34z"/>
</g>
<g id="Aquarius">
	<path class="st0" d="M17.67,359.48c23.4-82.64,65.35-153.97,126.08-215.6c4.58,5.08,8.8,9.75,13.38,14.83
		c-57.33,58.17-97.7,126.82-120.35,206.35C30.46,363.21,24.33,361.42,17.67,359.48z"/>
	<path class="st0" d="M160.5,162.36c11.19,10.83,22.03,21.28,32.83,31.78c6.12,5.95,12.3,11.83,18.21,17.99
		c9.61,10.01,18.88,20.36,28.56,30.31c14.71,15.13,29.64,30.03,44.47,45.04c4.32,4.37,8.56,8.81,12.95,13.11
		c2.19,2.15,1.78,3.47-0.27,5.71c-16.2,17.65-31.3,36.26-41.97,57.8c-8.74,17.65-16.01,36.02-24.1,54.46
		c-62.21-17.16-125.58-34.64-189.63-52.31C63.97,287.7,103.65,219.88,160.5,162.36z M241.95,302.9c5.44-0.27,11.12,0.27,16.17-1.26
		c1.63-0.5,5.38-5.31,3.68-10.19c-1.11,0.77-1.61,1.19-2.17,1.5c-5.3,2.93-10.19,5.83-17.05,3.52c-6.66-2.25-13.94-3.32-20.91,0
		c-3.55,1.69-6.77,0.72-10.39-0.47c-5.78-1.9-11.88-2.86-17.91-3.9c-0.94-0.16-2.18,1.39-3.28,2.15c-4.08-1.62-8.04-3.96-12.27-4.64
		c-3.41-0.55-4.73-1.82-5.78-4.79c-1.52-4.34-3.55-8.5-5.53-13.13c-2.16,3.9-3.68,6.66-5.4,9.78c0.59,1.09,1.28,2.81,2.35,4.25
		c3.41,4.61,4.66,11.25,11.9,12.29c5.86,0.84,9.85,4.17,11.41,10.64c4.66-3.28,5.06-7.57,5.04-12.04c3.67,5.47-0.88,9.34-3.17,13.81
		c3.9,0.43,7.33,1.05,10.76,1.13c8.06,0.19,12.66-5.25,10.41-12.44c4.14,2.25,4.09,5.3,1.66,9.37c2.65-0.21,4.78,0.07,6.44-0.67
		c0.95-0.43,1.16-2.52,1.7-3.86C226.12,310.01,235.8,311.2,241.95,302.9z M186.08,354.94l-0.09,0.13
		c3.31,5.5,6.02,11.49,10.06,16.39c6.67,8.1,9.99,16.63,7.23,27.07c-0.21,0.77,0.31,1.74,0.82,4.27c2.79-4.45,4.83-7.66,6.82-10.9
		c4.5-7.31,4.4-7.23-1.92-13.14c-1.53-1.43-3.6-3.96-3.24-5.47c1.65-6.98-0.73-12.93-4.04-18.54c-3.12-5.29-6.46-5.04-9.68,0.13
		c-0.38-0.32-0.77-0.64-1.15-0.96c1.85-2.07,3.7-4.15,5.06-5.68c-1.74-4.94-3.54-10.01-5.31-15.09c-1.77-5.08-3.49-10.16-5.15-15
		c-1.91,0.77-3.21,1.29-4.5,1.81l0.05,0.05c0.33-0.55,0.57-1.18,0.99-1.63c5.57-6.04,5.34-9.77-1.14-14.78
		c-1.68-1.3-3.71-3.04-5.59-3.06c-7.12-0.05-8.6-5.37-11.04-10.29c-1.79-3.63-4.52-6.8-6.83-10.17c0.1,11.48-1.23,14.03-8.11,15.75
		c-1.33,3.96-2.51,7.45-3.69,10.94c0.48-4.51,0.96-9.01,1.46-13.65c7.63-0.18,10.13-4.14,6.99-12.25c-0.94-2.43-1.86-4.86-2.34-6.11
		c2.94,0.8,7.53,3.57,9.48,2.29c4.97-3.25,2.28-8.26,0.39-12.75c1.42,1.87,2.85,3.75,3.84,5.05c2.2-0.84,4.05-1.44,5.82-2.24
		c2.08-0.94,4.46-1.68,5.96-3.23c0.67-0.69,0.06-3.81-0.96-4.67c-1.85-1.57-4.35-2.93-6.72-3.2c-4.34-0.51-8.99,0.68-13.14-0.34
		c-11.07-2.73-11.89-2.74-17.25,6.04c-4.02,0.37-8.13,0.99-9.62-4.3c-0.11-0.41-0.71-0.98-1.07-0.97
		c-4.56,0.17-9.88-0.93-13.44,1.08c-3.04,1.71-5.01,6.85-5.7,10.78c-0.84,4.75,2.63,7.47,7.62,7.7c0.22,0.01,0.38,1.12,0.64,1.94
		c-5.92-0.22-6.6,4.3-6.86,8.04c-0.27,3.9,0.9,7.89,1.58,12.83c-2.32-0.16-4.65-0.19-6.93-0.52c-4.65-0.66-7.18,1.92-5.89,6.41
		c0.64,2.21,1.2,5.31,2.8,6.22c6.89,3.9,8.46,11.22,12.23,17.15c6.28,9.87,15.77,15.44,26.83,18.42c6.06,1.63,10.79,4.99,14.68,9.74
		c1.4,1.71,2.76,3.45,4.13,5.18c0.17-0.12,0.35-0.23,0.52-0.35c-0.93-2.07-1.87-4.14-2.8-6.2c0.64-0.25,1.28-0.49,1.94-0.75
		c7.01,13.45,23.82,17.78,31.76,14.36c-0.22-0.2-0.4-0.51-0.63-0.55c-0.64-0.12-1.31-0.19-1.96-0.16
		c-10.21,0.46-18.68-3.21-25.66-10.6c-1.06-1.12-2.44-1.94-3.67-2.9c-0.72-1.57-1.23-3.29-2.2-4.69c-5.18-7.5-13.56-9.63-21.4-12.81
		c-6.89-2.79-13.58-6.16-18.29-11.26c6.64,1.81,13.56,3.7,20.49,5.59c0.89,0.3,1.77,0.61,2.66,0.91
		c5.16,4.59,11.02,8.62,15.31,13.91c7,8.62,16.29,10.73,26.37,11.4C183.71,357.36,184.92,355.76,186.08,354.94z M195.37,376.05
		c0.28-0.82,0.55-1.63,0.83-2.45c-12.53,0.5-24.75,0.05-33.85-9.67C170.65,375.71,182.71,376.72,195.37,376.05z M202.42,351.22
		c7.87,5.1,15.03,9.75,22.5,14.59C222.98,359.4,211.4,351.77,202.42,351.22z M221.15,370.64c-3-5.59-7.32-9.68-14.26-10.3
		C211.65,363.78,216.4,367.21,221.15,370.64z M208.67,365.37c-0.55,0.42-1.11,0.84-1.66,1.27c2.97,2.87,5.9,5.79,8.95,8.56
		c0.63,0.57,1.75,0.61,2.64,0.9c0.29-0.47,0.59-0.94,0.88-1.41C215.88,371.58,212.27,368.48,208.67,365.37z M172.88,360.43
		c4.62,3.74,10.44,4.78,15.42,2.65C183.11,362.18,177.92,361.29,172.88,360.43z"/>
	<path class="st0" d="M297.66,436.91c-20.16-5.58-39.95-11.06-60.05-16.63c12.39-43.77,34.32-81.07,64.69-112.41
		c15,14.5,29.82,28.84,44.91,43.43C323.7,375.88,307.26,404.18,297.66,436.91z M300.74,386.63c-4.37-1.01-7.22-1.85-10.13-2.25
		c-1.06-0.14-3.23,0.77-3.23,1.23c-0.02,1.69,0.46,3.46,1.14,5.04c0.38,0.88,1.53,1.42,2.78,2.49c-0.3-1.82-0.49-2.97-0.77-4.72
		c2.61,0.66,4.63,1.38,6.7,1.62c1.68,0.19,3.42-0.2,5.13-0.34c-0.2-1.68-0.08-3.48-0.66-5.02c-1.29-3.42-2.94-6.7-4.78-10.8
		c4.17,0.61,7.25,1.08,10.34,1.51c2.75,0.38,5.12-0.66,4.44-3.55c-0.57-2.45-2.69-4.55-4.12-6.8c-0.31,0.24-0.61,0.48-0.92,0.72
		c0.79,1.55,1.57,3.1,2.34,4.62c-0.58,0.39-0.86,0.73-1.09,0.7c-2.62-0.33-5.23-0.75-7.85-1.1c-4.86-0.64-6.54,1.54-4.53,6.06
		C296.93,379.21,298.57,382.25,300.74,386.63z M274.68,379.18c2.39,0.63,4.1,1.28,5.87,1.49c1.9,0.23,3.84,0.04,5.76,0.04
		c-0.16-2.04,0.1-4.23-0.57-6.08c-1.15-3.13-2.9-6.04-4.83-9.91c3.61,0.47,6.07,1.15,8.49,1c2.2-0.13,6.02-0.83,6.21-1.84
		c0.66-3.5-1.79-5.89-5.02-7.27c0.99,1.6,1.99,3.19,3.58,5.76c-3.99-0.65-6.72-1.28-9.48-1.51c-5.05-0.42-6.57,1.53-4.73,6.21
		c1.26,3.21,2.97,6.24,5,10.43c-3.78-0.94-6.58-1.85-9.45-2.27c-1.27-0.18-3.03,0.26-3.89,1.11c-0.55,0.54-0.08,2.43,0.35,3.55
		c0.45,1.16,1.42,2.12,2.71,3.95C274.68,381.91,274.68,380.93,274.68,379.18z"/>
	<path class="st0" d="M313.23,441.07c-3.78-1.11-6.91-2.04-10.62-3.13c9.19-31.83,25.09-59.27,48.12-83.18
		c1.52,1.64,2.69,2.98,3.95,4.24c1.16,1.16,2.41,2.23,4,3.7C337.13,385.01,322.39,411.04,313.23,441.07z"/>
	<path class="st0" d="M144.04,308.68c3.63,3.91,5.84,2.79,8.65-4.54c8.21-0.64,6.59,10.7,14.06,11.61
		c-0.72,7.53,2.09,14.29,6.36,20.55c0.9,1.32,2.29,2.32,3.12,3.67c1.08,1.77,1.62,3.88,2.77,5.59c2.19,3.26,4.64,6.35,6.98,9.51
		c0,0,0.09-0.13,0.09-0.13c-13.8-0.42-25.45-5.01-33.96-16.55c-2.6-3.52-6.09-6.67-11.18-6.41c-0.89-0.3-1.77-0.61-2.66-0.91
		c-4.42-1.76-9.04-3.17-13.21-5.4c-3.1-1.65-5.62-4.37-7.79-7.52c5.19,2.26,10.19,5.35,15.62,6.62c11.2,2.62,19.1,10.16,27.72,16.76
		c4.8,3.67,10.16,5.72,16.31,6.01c-0.07-0.72,0.01-1.2-0.13-1.28c-14.44-7.96-28.86-15.96-43.38-23.77
		c-3.47-1.87-7.3-3.07-10.96-4.59c-3.74-1.56-5.45-4.34-4.51-8.34c0.96-4.1,4.2-4.7,7.76-4.61c1.16,0.03,2.32,0,3.68,0
		c0.62-2.34,1.25-4.72,2.14-8.1c0.27,4.59,0.47,8.06,0.66,11.52c-2.48-3.76-6.31-2.69-9.44-1.94c-2.72,0.65-2.7,3.38-0.46,4.92
		c2.77,1.91,5.92,3.27,9.41,5.13c0.16-3.38,0.28-5.82,0.4-8.25c0.5,1.88,0.92,3.78,1.51,5.64c0.46,1.45,1.12,2.84,1.69,4.25
		c1.8-0.76,4.17-1.06,5.28-2.4C142.19,313.77,142.93,311.07,144.04,308.68z"/>
	<path class="st0" d="M110.28,315.38c-2.25-2.83-4.37-5.25-6.16-7.91c-0.49-0.72-0.33-2.4,0.21-3.15c0.52-0.73,1.99-1.29,2.92-1.14
		c4.81,0.79,6.93,5.63,4.46,9.82C111.38,313.57,111.04,314.12,110.28,315.38z"/>
	<path class="st0" d="M132.41,270c0.39,3.47,2.11,7.53,0.88,10.27c-1.97,4.41-3.07,8.16-0.07,12.52c-0.49,0.13-0.98,0.26-1.47,0.39
		c-0.86-2.21-2.65-4.54-2.39-6.61c0.47-3.74-0.93-4.98-4.3-4.96c0.22-0.59,0.31-1.14,0.45-1.16c6.71-0.58,6.71-0.58,5.11-9.94
		C131.21,270.35,131.81,270.18,132.41,270z"/>
	<path class="st0" d="M115.97,283.52c0.89,2.88,1.66,4.74,1.93,6.67c0.07,0.5-1.44,1.23-2.22,1.85c-0.71-1.85-1.57-3.67-2.04-5.58
		C113.52,285.97,114.61,285.18,115.97,283.52z"/>
	<path class="st0" d="M180.97,319.97c-2.2,1.37-4.39,2.74-7.21,4.49c0.67,1.92,1.6,4.59,2.53,7.27c-0.28,0.1-0.56,0.21-0.84,0.31
		c-1.4-3.44-2.81-6.88-4.2-10.3c3.84-0.68,6.8-1.21,9.76-1.73C181.01,320.02,180.97,319.97,180.97,319.97z"/>
	<path class="st0" d="M152.34,348c-9.04-3.71-18.08-7.42-27.13-11.13c0.21-0.5,0.41-1,0.62-1.5
		C134.69,339.61,145.24,339.83,152.34,348z"/>
</g>
<g id="Pisces">
	<path class="st0" d="M420.01,232.43c-44.79,12.79-83.05,35.22-116.1,67.34c-46.56-47.25-92.81-94.19-139.03-141.1
		c32.43-41.84,151.13-110.07,205.25-117.82C386.71,104.52,403.31,168.27,420.01,232.43z M365.27,135.88
		c0.03,0.84-0.28,2.01,0.15,2.45c4.65,4.83,8.05,4.8,13.29,0.14c-1.63-2.18-3.25-4.34-4.93-6.59c-1.22,0.69-2.36,1.33-3.5,1.98
		c-2.14-2.2-4.29-4.4-6.6-6.78c-3.02,1.93-5.83,3.73-8.64,5.54c0.06,0.49,0.12,0.99,0.17,1.48
		C358.56,134.69,361.92,135.29,365.27,135.88z M257.53,230.05c-0.01,0.94-0.42,2.34,0.03,2.73c1.48,1.25,3.28,2.14,5.13,3.27
		c2.69-1.52,5.48-3.09,8.26-4.66c0.03-0.49,0.06-0.98,0.09-1.47c-3.23-0.62-6.46-1.24-9.69-1.86c-3.01-7.21-7.8-8-13.75-2.53
		c1.44,2.39,2.83,4.71,4.22,7.02C253.91,231.64,255.72,230.84,257.53,230.05z M349.83,207.24c0.28-3.41,5.29-5.89,2.22-10.1
		c-3.5,1.34-6.73,2.59-10.92,4.2c3.41,2.21,6.14,3.98,8.87,5.74c-3.06,6.48-8.55,10.42-14.65,13.52
		c-9.36,4.76-18.86,9.23-28.3,13.82c-0.07,0.17-0.14,0.34-0.2,0.51c3.77-0.74,7.54-1.48,11.31-2.23c0.52,2.94,0.52,2.94,6.35-0.62
		c-0.67,1.43-1.22,2.6-2.08,4.44c2.55,0,4.38,0,6.2,0c0.78,4.37,1.28,4.55,5.09,1.57c-0.22,1.29-0.42,2.43-0.85,4.88
		c2.61-1.56,4.19-2.51,5.76-3.45c-0.87,6.28-0.33,7.98,4.09,11.57c0.33-2.88,0.59-5.45,0.93-8.01c1.36-10.21,4.88-19.33,13.29-25.91
		c3.89-3.04,8.08-5.76,11.72-9.07c7.61-6.93,13.65-14.98,15.19-25.53c3.34-22.93-16.62-46.67-40.69-48.28
		c-7.12-0.48-14.36-1.07-20.59,1.52c5.95,4.12,12.35,7.73,17.76,12.46c8.59,7.52,7.07,14.47-3.4,18.54
		c-0.41,0.16-0.77,0.45-1.53,0.91c2.08,0.68,3.82,1.18,5.52,1.81c3.87,1.41,8.33,2.08,11.46,4.48
		C362.93,182.14,361.36,199.86,349.83,207.24z M283.49,112.49c-0.87,5.97-1.51,11.08-2.37,16.15c-1.36,7.99-5.87,14.47-12.2,18.78
		c-7.13,4.86-14.06,10.01-18.26,17.28c-3.97,6.86-8.21,14.95-8.19,22.5c0.06,29.79,32.79,50.96,60.97,40.45
		c-3.45-1.92-7.09-3.57-10.29-5.84c-3.2-2.27-6.29-4.88-8.86-7.84c-6.24-7.19-4.5-12.96,4.52-16.09
		c-7.11,10.68-2.56,20.97,9.31,22.51c-1.99-3.71-5.28-7.59-6.01-11.89c-0.66-3.93,1.46-8.33,2.22-11.92
		c-4.67-1.27-10.44-2.29-15.77-4.4c-13.03-5.15-16.11-16.33-8.94-28.32c6.4-10.7,15.24-18.26,26.39-23.4
		c7.49-3.45,15-6.85,22.5-10.27c-0.03-0.32-0.06-0.65-0.08-0.97c-3.62,0.72-7.24,1.43-10.65,2.11c0.16-0.65,0.45-1.79,0.73-2.94
		c-0.35-0.23-0.7-0.47-1.04-0.7c-1.98,1.35-3.95,2.7-6.24,4.26c0.27-1.55,0.5-2.85,0.86-4.87c-1.99,0.23-3.46,0.39-3.71,0.42
		c-2.62-2.21-4.42-4.36-6.73-5.34c-0.79-0.34-2.82,2.25-4.88,4C288.46,120.87,288.56,116.38,283.49,112.49z M330.3,166.05
		c0-0.61-0.1-1.09,0.01-1.51c3.08-11.04-2.29-21.34-13.27-25.27c-1.04-0.37-2.46-0.66-3.38-0.25c-7.67,3.45-13.89,8.55-18.1,16.13
		c6.28,2.31,13.08,2.71,17.2,8.79c-2.57,2.25-4.88,4.27-7.19,6.29c0.11,0.49,0.21,0.99,0.32,1.48c4.47,0,9.09,0.7,13.39-0.18
		c5.07-1.04,9.98-3.17,14.74-5.31c6.92-3.1,10.36-10.08,6.61-14.16c-3.43-3.73-8.3-6.14-12.54-9.13
		C336.64,154.88,337.22,159.16,330.3,166.05z M332.25,209.09c-15.02-4.37-15.15-4.44-19.08-10.06c2.24-1.69,4.69-3.53,7.33-5.53
		c-10.53-3.73-21.77-0.37-24.86,7.04c-4.11,9.84,0.7,16.83,17.78,24.84C319.23,220.37,325.38,215.05,332.25,209.09z M383.13,139.54
		c-3.3,1.87-6.61,3.76-10.02,5.69c5.39,6.6,6.49,6.8,12.64,2.81C384.95,145.43,384.15,142.82,383.13,139.54z M243.4,223.98
		c2.49-1.31,5.09-2.64,7.65-4.04c0.55-0.3,0.98-0.84,1.45-1.26c-4.51-6.53-4.51-6.53-12.34-3.41
		C241.21,218.08,242.26,220.91,243.4,223.98z M272.17,166.24c0.45,0.23,0.89,0.45,1.34,0.68c3.58-1.46,7.17-2.93,11.08-4.53
		c-2.98-2.05-5.07-3.48-8.03-5.51C275.04,160.11,273.61,163.17,272.17,166.24z M247.34,210.6c-2.19-3.6-3.08-8.18-8.4-4.72
		c0,2.3,0,4.51,0,6.85C241.75,212.02,244.28,211.38,247.34,210.6z M379.33,153.35c1.99,3.21,2.56,7.77,7.7,5.11
		c0.14-2.47,0.27-4.81,0.41-7.36C384.56,151.9,382.08,152.59,379.33,153.35z M338.63,180.21c0.44,0.21,0.88,0.41,1.32,0.62
		c1.38-2.37,2.77-4.74,4.38-7.49c-2.87-0.81-5-1.4-7.36-2.07C337.59,174.62,338.11,177.42,338.63,180.21z M287.2,182.41
		c-2.22,3.17-3.74,5.35-5.8,8.29c3.07,0.81,5.3,1.39,7.83,2.06C288.57,189.35,288.04,186.65,287.2,182.41z M385.77,168.4
		c0.89-2.94,1.63-5.35,2.39-7.86C383.23,160.36,382.6,162.28,385.77,168.4z"/>
	<path class="st0" d="M368.65,35.74c-79.31,22.02-148.2,61.47-207.34,118.89c-4.71-4.79-9.16-9.33-14.01-14.27
		c61.64-59.81,133.45-101.1,216.45-123.9C365.37,22.84,366.92,28.91,368.65,35.74z"/>
	<path class="st0" d="M436.98,297.58c-33.98,10.57-57.63,23.78-85.27,49.03c-14.79-14.31-29.58-28.61-44.72-43.26
		c32.59-32.23,70.46-53.54,114.26-66.06C426.55,257.59,431.73,277.45,436.98,297.58z M379.72,284.82
		c-0.62-5.67-1.12-10.32-1.62-14.91c-4.3,5.04-4.28,10.96-1.82,17.3c-1.86,1.12-3.51,2.12-5.05,3.05
		c-7.73-7.16-11.09-8.39-16.37-6.82c3.53,2.5,7.56,5.34,12.45,8.8c-3.51,1.23-5.47,1.92-7.42,2.6c0.01,0.44,0.02,0.88,0.03,1.33
		c2.86,0,5.73,0,9.31,0c0,5.4,0,10.55,0,16.85c5.03-6.45,6.03-12.44,3.48-19.11c1.97-1.13,3.67-2.1,5.45-3.13
		c4.52,5.16,9.91,7.4,16.58,6.51c-4.35-3.02-8.42-5.85-12.64-8.78c5.22-5.46,5.22-5.46,3.91-8.85
		C384.22,281.13,382.48,282.56,379.72,284.82z"/>
	<path class="st0" d="M437.92,302.56c1.08,3.8,1.96,6.93,3,10.62c-29.77,9.28-56.09,23.87-78.46,45.83
		c-2.56-2.67-5.01-5.23-7.81-8.15C378.31,327.86,405.84,312.02,437.92,302.56z"/>
</g>
<g id="Aries">
	<path class="st0" d="M619.29,15.99c-1.06,3.88-1.86,6.92-2.73,9.95c-0.82,2.88-1.71,5.74-2.79,9.35c-6.67-1.57-13.35-3.2-20.06-4.7
		c-42.7-9.55-85.91-12.31-129.56-10.02c-29.34,1.54-58.21,5.87-86.62,13.27c-2.59,0.67-4.06,0.34-4.67-2.57
		c-1.08-5.2-2.43-10.34-3.85-16.26C452.41-5.8,535.51-5.38,619.29,15.99z"/>
	<path class="st0" d="M375.29,39.61c68.56-19.91,166.01-20.07,237.14,0.84c-17.49,63.46-34.98,126.94-52.59,190.83
		c-22.27-5.55-44.45-8.37-67.01-8.39c-22.58-0.02-44.83,2.47-67.72,8.28C408.5,167.28,391.93,103.57,375.29,39.61z M517.47,158.72
		c0.58-3.85,1.15-7.7,1.88-12.54c-3.53,1.36-5.89,2.26-8.62,3.31c0.79,1.75,1.39,3.07,1.99,4.38c-0.15,3.84-0.09,7.7-0.5,11.51
		c-1.1,10.26-8.47,16.46-15.22,23.05c-0.79,0.77-1.23,1.9-1.89,2.98c2.51,0.13,4.18,0.47,5.77,0.24c1.66-0.25,3.63-0.62,4.79-1.68
		c2.63-2.41,1.63-8.01,7.05-8.15c0.11,0,0.2-0.59,0.32-0.89c1.61-4.3,3.01-8.7,4.89-12.88
		C519.41,164.72,519.61,161.73,517.47,158.72z M472.12,153.8c-0.03-4.83-0.76-5.26-7.9-4.24c1.21,2.93,2.38,5.74,3.54,8.56
		c0.2,1.15,0.49,2.28,0.58,3.44c0.88,11.17,2.37,22.48-8.05,30.74c-0.83,0.65-1.06,2.06-1.87,3.75c3.54-0.33,7.49,0.41,8.55-1
		c3.04-4.06,5.33-8.85,7.07-13.66c1.09-3,0.52-6.58,0.93-9.87C475.76,165.31,475.39,159.33,472.12,153.8z M473.3,114.16
		c4.27-5.94,8.57-11.87,12.79-17.85c0.55-0.77,0.75-1.79,1.11-2.69c-0.51-0.39-1.03-0.78-1.54-1.17
		c-4.11,4.57-8.34,9.05-12.26,13.78c-1.26,1.51-1.72,3.69-2.54,5.56c-8,6.55-11.15,18.75-7.37,30.06
		c-5.23-3.85-4.2-12.47-11.68-13.26c1.23,10.52,9.49,18.93,18.08,17.93c0-0.92,0.21-1.94-0.03-2.83c-2.4-8.6-0.83-16.75,2.5-24.77
		C472.97,117.45,473,115.75,473.3,114.16z M455.87,96.94c-4.73,6.23-5.85,13.57-5.49,20.98c0.16,3.2,1.99,6.57,3.84,9.35
		c1.76,2.65,4.27,2.28,5.73-0.79c2.74-5.8,5.38-11.65,8.06-17.47c3.39-3.83,6.79-7.66,10.18-11.49c1.98-2.23,4.21-4.29,5.86-6.74
		c2.08-3.1,0.9-8.48-1.6-8.44c-4.06,0.05-7.89,0.91-9.15,5.66c-0.55,2.07-1.04,4.15-1.81,7.24c-0.5-2.44-0.79-3.89-0.91-4.48
		c-3.93,1.16-7.67,2.09-11.26,3.4C458,94.63,457.01,95.98,455.87,96.94z M475.87,150.25c0.61,3.64,1.53,7.27,1.76,10.94
		c0.3,4.65-0.21,9.35,0.1,13.99c0.43,6.51-1.11,12.14-5.73,16.93c-1.05,1.09-1.36,2.87-2.27,4.91c2.19-0.47,3.6-1.26,4.42-0.86
		c3.44,1.7,4.98-0.29,5.91-2.92c2.18-6.09,5.9-11.8,4.07-18.88c-0.5-1.93,0.47-4.25,0.75-6.39c0.69-5.33,1.55-10.64,1.99-15.99
		c0.36-4.37,0.19-8.79,0.26-13.19c0.54-2.28,2.15-5.01,1.41-6.75c-1.54-3.63-4.31-6.73-6.57-10.05c3.6-3.06,6.17-2.49,7.67,1.82
		c1.17,3.36,2.21,6.77,3.3,10.16c-0.96,4.54-1.91,9.09-2.87,13.63c0.54,0.3,1.08,0.61,1.62,0.91c3.07-2.26,6.13-4.51,9.2-6.77
		c1.84-1.57,3.77-3.05,5.49-4.74c4.18-4.11,8.26-8.32,12.39-12.49c0.37,0.38,0.75,0.76,1.12,1.14c-0.51,0.62-1.01,1.24-1.52,1.86
		c-4.83,5.74-9.66,11.48-14.49,17.21c-4.82,2.1-9.64,4.19-14.46,6.29c6.91,3.27,12.24,0.16,17.54-3.13
		c2.14-0.79,4.27-1.63,6.43-2.35c3.45-1.15,5.01-2.94,4.98-7.12c-0.05-6.06,2.19-11.7,7.31-15.68c-0.14,1.64-1,2.98-1.4,4.45
		c-1.2,4.38-3.46,8.95-3,13.2c0.6,5.58,3.05,11.07,5.38,16.3c1.83,4.11,3.23,7.94,1.42,12.33c-5,7.34-10,14.67-14.71,21.6
		c7.55,0.9,7.14,0.52,11.57-4.33c3.81-4.16,6.32-8.42,6.2-14.08c2.86-3.95,7.37-7.66,4.94-13.13c-2.31-5.22-1.36-9.58,1.17-14.14
		c2.49-4.49,5.29-8.87,7.22-13.59c3.68-9.02,1.68-18.18-5.81-21.9c-4.77-2.38-10.87-2.04-16.34-3.08
		c-5.6-1.06-11.36-1.78-16.69-3.66c-4.61-1.63-8.63-4.87-13.11-6.99c-1.19-0.56-4.04-0.15-4.54,0.73c-4,7.01-7.61,14.24-11.34,21.4
		c-4.77,7.5-5.27,15.85-4.32,24.29C472.65,144.94,474.65,147.55,475.87,150.25z M448.94,89.87c-1.63,0.7-3.26,1.4-5.57,2.39
		c1.01,1.43,2.29,3.55,2.49,3.46c1.88-0.92,3.58-2.22,5.33-3.41c2.4-0.22,4.83-0.78,7.2-0.59c5.1,0.41,9.1-1.88,12.23-5.28
		c1.44-1.57,1.82-4.55,1.84-6.9c0.04-3.68-0.66-7.36-0.99-11.05c-0.1-1.12,0.28-2.34-0.05-3.36c-1.01-3.09-2.25-6.11-3.51-9.45
		c-6.97,0.27-12.66,5.75-13.88,13.91c-0.41,2.74-1.36,5.39-2.04,8.09C450.96,81.74,449.95,85.81,448.94,89.87z M494.71,54.54
		c-10.44-2.57-21.58,7.36-21.16,17.69c0.31,7.61,6.92,11.41,13.12,7.06c2.43-1.7,4.73-5.12,5.04-7.97
		c0.53-4.88-0.57-9.93-1.02-15.38C491.18,55.77,492.94,55.15,494.71,54.54z M450.74,72.59c2.45-5.62,5-11.49,7.75-17.8
		c-3.27-1.15-6.69-2.34-9.41,1.39C445.69,60.84,446.92,69.1,450.74,72.59z M548,116.82c10.78-6.22,8.81-15.41,1.07-20.49
		c1.7,5.74,1.13,10.57-4.69,13.17C545.65,112.07,546.74,114.27,548,116.82z M443.3,54.77c-2.49,5.43-4.16,10.77-1.41,16.17
		c1.28,2.5,3.96,4.29,6.39,6.79C446.46,69.36,444.93,62.29,443.3,54.77z M480.16,53.88c-3.81,0.28-8.43-1.4-9.16,4.7
		c-0.1,0.84,0.29,2.06,0.89,2.54c0.4,0.31,1.85-0.14,2.39-0.69C476.24,58.47,478.01,56.32,480.16,53.88z"/>
	<path class="st0" d="M442.06,296.4c-5.28-20.36-10.42-40.19-15.7-60.56c43.92-10.88,87.57-10.87,132.13,0.12
		c-5.52,20.16-10.98,40.05-16.53,60.33C508.64,288.15,475.74,288.02,442.06,296.4z M493.58,250.76c-1.71-5.36-4.58-8.64-9.86-8.35
		c-3.5,0.19-5.96,2.34-6.36,5.94c-0.46,4.16-0.41,8.33,4.54,10.75c0.72-1.25,1.34-2.33,1.97-3.41c-0.48,0.17-0.96,0.34-1.44,0.51
		c-1.24-2.35-3.12-4.62-3.43-7.08c-0.14-1.14,3.17-4.05,4.24-3.74c2.54,0.72,5.31,2.44,6.78,4.58c1.36,1.98,1.43,5.03,1.55,7.63
		c0.22,4.98-0.09,9.99,0.18,14.97c0.06,1.16,1.53,2.24,2.35,3.35c0.77-1.17,2.14-2.3,2.2-3.5c0.26-5.31-0.16-10.67,0.28-15.96
		c0.25-3.03,1.12-6.36,2.82-8.77c1.02-1.45,4.46-2.32,6.28-1.75c1.42,0.45,2.81,3.57,2.72,5.42c-0.09,1.86-2.05,3.63-3.19,5.43
		c-0.52-0.36-1.04-0.73-1.57-1.09c0.87,1.07,1.73,2.13,2.67,3.29c4.17-3.13,5.28-7.21,3.68-11.28c-0.87-2.22-3.67-4.78-5.92-5.13
		C498.88,241.78,496.22,245.89,493.58,250.76z"/>
	<path class="st0" d="M537.74,312.04c-30.79-7.92-60.89-7.89-91.56,0.1c-0.74-3.05-1.74-6.01-2.02-9.03
		c-0.09-0.95,1.62-2.78,2.75-3.02c25.11-5.3,50.37-7.1,75.83-2.69c4.42,0.76,8.83,1.67,13.27,2.3c3.36,0.48,4.77,1.76,3.43,5.3
		C538.63,307.14,538.34,309.47,537.74,312.04z"/>
	<path class="st0" d="M483.8,61.6c0.29,3.3,0.59,6.6,0.96,10.82c-1.35-0.59-3.16-1.01-3.16-1.43c0.02-3.19,0.39-6.37,0.66-9.56
		C482.77,61.49,483.29,61.54,483.8,61.6z"/>
	<path class="st0" d="M458.91,75.39c2.78-0.56,5.56-1.11,8.34-1.67c0.18,0.83,0.36,1.66,0.54,2.5c-2.74,0.69-5.49,1.38-8.23,2.06
		C459.35,77.31,459.13,76.35,458.91,75.39z"/>
</g>
</svg>
